<?xml version="1.0" encoding="UTF-8"?>
<svg id="Layer_2" data-name="Layer 2" xmlns="http://www.w3.org/2000/svg" xmlns:xlink="http://www.w3.org/1999/xlink" viewBox="0 0 3938.74 1967.29">
  <defs>
    <style>
      .cls-1 {
        fill: #859f3d;
      }
      .cls-3 {
        fill: none;
      }
    </style>
  </defs>
  <g id="Layer_1-2" data-name="Layer 1">
    <g class="cls-2">
      <g>
        <g>
          <path class="cls-1" d="M73.86,73.86h0s-44.32,0-44.32,0C13.23,73.86,0,60.63,0,44.32V0H0C40.79,0,73.86,33.07,73.86,73.86Z"/>
          <path class="cls-1" d="M152.65,152.65h0s-44.32,0-44.32,0c-16.32,0-29.54-13.23-29.54-29.54v-44.32h0c40.79,0,73.86,33.07,73.86,73.86Z"/>
        </g>
        <g>
          <path class="cls-1" d="M231.51,73.86h0s-44.32,0-44.32,0c-16.32,0-29.54-13.23-29.54-29.54V0h0C198.44,0,231.51,33.07,231.51,73.86Z"/>
          <path class="cls-1" d="M310.29,152.65h0s-44.32,0-44.32,0c-16.32,0-29.54-13.23-29.54-29.54v-44.32h0c40.79,0,73.86,33.07,73.86,73.86Z"/>
        </g>
        <g>
          <path class="cls-1" d="M389.16,73.86h0s-44.32,0-44.32,0c-16.32,0-29.54-13.23-29.54-29.54V0h0C356.09,0,389.16,33.07,389.16,73.86Z"/>
          <path class="cls-1" d="M467.94,152.65h0s-44.32,0-44.32,0c-16.32,0-29.54-13.23-29.54-29.54v-44.32h0c40.79,0,73.86,33.07,73.86,73.86Z"/>
        </g>
        <g>
          <path class="cls-1" d="M546.8,73.86h0s-44.32,0-44.32,0c-16.32,0-29.54-13.23-29.54-29.54V0h0C513.73,0,546.8,33.07,546.8,73.86Z"/>
          <path class="cls-1" d="M625.59,152.65h0s-44.32,0-44.32,0c-16.32,0-29.54-13.23-29.54-29.54v-44.32h0c40.79,0,73.86,33.07,73.86,73.86Z"/>
        </g>
        <g>
          <path class="cls-1" d="M704.45,73.86h0s-44.32,0-44.32,0c-16.32,0-29.54-13.23-29.54-29.54V0h0C671.38,0,704.45,33.07,704.45,73.86Z"/>
          <path class="cls-1" d="M783.24,152.65h0s-44.32,0-44.32,0c-16.32,0-29.54-13.23-29.54-29.54v-44.32h0c40.79,0,73.86,33.07,73.86,73.86Z"/>
        </g>
        <g>
          <path class="cls-1" d="M862.1,73.86h0s-44.32,0-44.32,0c-16.32,0-29.54-13.23-29.54-29.54V0h0C829.03,0,862.1,33.07,862.1,73.86Z"/>
          <path class="cls-1" d="M940.88,152.65h0s-44.32,0-44.32,0c-16.32,0-29.54-13.23-29.54-29.54v-44.32h0c40.79,0,73.86,33.07,73.86,73.86Z"/>
        </g>
        <g>
          <path class="cls-1" d="M1019.74,73.86h0s-44.32,0-44.32,0c-16.32,0-29.54-13.23-29.54-29.54V0h0C986.67,0,1019.74,33.07,1019.74,73.86Z"/>
          <path class="cls-1" d="M1098.53,152.65h0s-44.32,0-44.32,0c-16.32,0-29.54-13.23-29.54-29.54v-44.32h0c40.79,0,73.86,33.07,73.86,73.86Z"/>
        </g>
        <g>
          <path class="cls-1" d="M1177.39,73.86h0s-44.32,0-44.32,0c-16.32,0-29.54-13.23-29.54-29.54V0h0C1144.32,0,1177.39,33.07,1177.39,73.86Z"/>
          <path class="cls-1" d="M1256.18,152.65h0s-44.32,0-44.32,0c-16.32,0-29.54-13.23-29.54-29.54v-44.32h0c40.79,0,73.86,33.07,73.86,73.86Z"/>
        </g>
        <g>
          <path class="cls-1" d="M1335.04,73.86h0s-44.32,0-44.32,0c-16.32,0-29.54-13.23-29.54-29.54V0h0C1301.97,0,1335.04,33.07,1335.04,73.86Z"/>
          <path class="cls-1" d="M1413.82,152.65h0s-44.32,0-44.32,0c-16.32,0-29.54-13.23-29.54-29.54v-44.32h0c40.79,0,73.86,33.07,73.86,73.86Z"/>
        </g>
        <g>
          <path class="cls-1" d="M1492.68,73.86h0s-44.32,0-44.32,0c-16.32,0-29.54-13.23-29.54-29.54V0h0C1459.62,0,1492.68,33.07,1492.68,73.86Z"/>
          <path class="cls-1" d="M1571.47,152.65h0s-44.32,0-44.32,0c-16.32,0-29.54-13.23-29.54-29.54v-44.32h0c40.79,0,73.86,33.07,73.86,73.86Z"/>
        </g>
        <g>
          <path class="cls-1" d="M1650.33,73.86h0s-44.32,0-44.32,0c-16.32,0-29.54-13.23-29.54-29.54V0h0C1617.26,0,1650.33,33.07,1650.33,73.86Z"/>
          <path class="cls-1" d="M1729.12,152.65h0s-44.32,0-44.32,0c-16.32,0-29.54-13.23-29.54-29.54v-44.32h0c40.79,0,73.86,33.07,73.86,73.86Z"/>
        </g>
        <g>
          <path class="cls-1" d="M1807.98,73.86h0s-44.32,0-44.32,0c-16.32,0-29.54-13.23-29.54-29.54V0h0C1774.91,0,1807.98,33.07,1807.98,73.86Z"/>
          <path class="cls-1" d="M1886.76,152.65h0s-44.32,0-44.32,0c-16.32,0-29.54-13.23-29.54-29.54v-44.32h0c40.79,0,73.86,33.07,73.86,73.86Z"/>
        </g>
        <g>
          <path class="cls-1" d="M1965.63,73.86h0s-44.32,0-44.32,0c-16.32,0-29.54-13.23-29.54-29.54V0h0C1932.56,0,1965.63,33.07,1965.63,73.86Z"/>
          <path class="cls-1" d="M2044.41,152.65h0s-44.32,0-44.32,0c-16.32,0-29.54-13.23-29.54-29.54v-44.32h0c40.79,0,73.86,33.07,73.86,73.86Z"/>
        </g>
        <g>
          <path class="cls-1" d="M2123.27,73.86h0s-44.32,0-44.32,0c-16.32,0-29.54-13.23-29.54-29.54V0h0C2090.2,0,2123.27,33.07,2123.27,73.86Z"/>
          <path class="cls-1" d="M2202.06,152.65h0s-44.32,0-44.32,0c-16.32,0-29.54-13.23-29.54-29.54v-44.32h0c40.79,0,73.86,33.07,73.86,73.86Z"/>
        </g>
        <g>
          <path class="cls-1" d="M2280.92,73.86h0s-44.32,0-44.32,0c-16.32,0-29.54-13.23-29.54-29.54V0h0C2247.85,0,2280.92,33.07,2280.92,73.86Z"/>
          <path class="cls-1" d="M2359.71,152.65h0s-44.32,0-44.32,0c-16.32,0-29.54-13.23-29.54-29.54v-44.32h0c40.79,0,73.86,33.07,73.86,73.86Z"/>
        </g>
        <g>
          <path class="cls-1" d="M2438.57,73.86h0s-44.32,0-44.32,0c-16.32,0-29.54-13.23-29.54-29.54V0h0C2405.5,0,2438.57,33.07,2438.57,73.86Z"/>
          <path class="cls-1" d="M2517.35,152.65h0s-44.32,0-44.32,0c-16.32,0-29.54-13.23-29.54-29.54v-44.32h0c40.79,0,73.86,33.07,73.86,73.86Z"/>
        </g>
        <g>
          <path class="cls-1" d="M2596.21,73.86h0s-44.32,0-44.32,0c-16.32,0-29.54-13.23-29.54-29.54V0h0C2563.15,0,2596.21,33.07,2596.21,73.86Z"/>
          <path class="cls-1" d="M2675,152.65h0s-44.32,0-44.32,0c-16.32,0-29.54-13.23-29.54-29.54v-44.32h0c40.79,0,73.86,33.07,73.86,73.86Z"/>
        </g>
        <g>
          <path class="cls-1" d="M2753.86,73.86h0s-44.32,0-44.32,0c-16.32,0-29.54-13.23-29.54-29.54V0h0C2720.79,0,2753.86,33.07,2753.86,73.86Z"/>
          <path class="cls-1" d="M2832.65,152.65h0s-44.32,0-44.32,0c-16.32,0-29.54-13.23-29.54-29.54v-44.32h0c40.79,0,73.86,33.07,73.86,73.86Z"/>
        </g>
        <g>
          <path class="cls-1" d="M2911.51,73.86h0s-44.32,0-44.32,0c-16.32,0-29.54-13.23-29.54-29.54V0h0C2878.44,0,2911.51,33.07,2911.51,73.86Z"/>
          <path class="cls-1" d="M2990.29,152.65h0s-44.32,0-44.32,0c-16.32,0-29.54-13.23-29.54-29.54v-44.32h0c40.79,0,73.86,33.07,73.86,73.86Z"/>
        </g>
        <g>
          <path class="cls-1" d="M3069.16,73.86h0s-44.32,0-44.32,0c-16.32,0-29.54-13.23-29.54-29.54V0h0C3036.09,0,3069.16,33.07,3069.16,73.86Z"/>
          <path class="cls-1" d="M3147.94,152.65h0s-44.32,0-44.32,0c-16.32,0-29.54-13.23-29.54-29.54v-44.32h0c40.79,0,73.86,33.07,73.86,73.86Z"/>
        </g>
        <g>
          <path class="cls-1" d="M3226.8,73.86h0s-44.32,0-44.32,0c-16.32,0-29.54-13.23-29.54-29.54V0h0C3193.73,0,3226.8,33.07,3226.8,73.86Z"/>
          <path class="cls-1" d="M3305.59,152.65h0s-44.32,0-44.32,0c-16.32,0-29.54-13.23-29.54-29.54v-44.32h0c40.79,0,73.86,33.07,73.86,73.86Z"/>
        </g>
        <g>
          <path class="cls-1" d="M3384.45,73.86h0s-44.32,0-44.32,0c-16.32,0-29.54-13.23-29.54-29.54V0h0C3351.38,0,3384.45,33.07,3384.45,73.86Z"/>
          <path class="cls-1" d="M3463.24,152.65h0s-44.32,0-44.32,0c-16.32,0-29.54-13.23-29.54-29.54v-44.32h0c40.79,0,73.86,33.07,73.86,73.86Z"/>
        </g>
        <g>
          <path class="cls-1" d="M3542.1,73.86h0s-44.32,0-44.32,0c-16.32,0-29.54-13.23-29.54-29.54V0h0C3509.03,0,3542.1,33.07,3542.1,73.86Z"/>
          <path class="cls-1" d="M3620.88,152.65h0s-44.32,0-44.32,0c-16.32,0-29.54-13.23-29.54-29.54v-44.32h0c40.79,0,73.86,33.07,73.86,73.86Z"/>
        </g>
        <g>
          <path class="cls-1" d="M3699.74,73.86h0s-44.32,0-44.32,0c-16.32,0-29.54-13.23-29.54-29.54V0h0C3666.67,0,3699.74,33.07,3699.74,73.86Z"/>
          <path class="cls-1" d="M3778.53,152.65h0s-44.32,0-44.32,0c-16.32,0-29.54-13.23-29.54-29.54v-44.32h0c40.79,0,73.86,33.07,73.86,73.86Z"/>
        </g>
        <g>
          <path class="cls-1" d="M3857.39,73.86h0s-44.32,0-44.32,0c-16.32,0-29.54-13.23-29.54-29.54V0h0C3824.32,0,3857.39,33.07,3857.39,73.86Z"/>
          <path class="cls-1" d="M3936.18,152.65h0s-44.32,0-44.32,0c-16.32,0-29.54-13.23-29.54-29.54v-44.32h0c40.79,0,73.86,33.07,73.86,73.86Z"/>
        </g>
        <g>
          <path class="cls-1" d="M73.86,231.51h0s-44.32,0-44.32,0C13.23,231.51,0,218.28,0,201.96v-44.32H0c40.79,0,73.86,33.07,73.86,73.86Z"/>
          <path class="cls-1" d="M152.65,310.29h0s-44.32,0-44.32,0c-16.32,0-29.54-13.23-29.54-29.54v-44.32h0c40.79,0,73.86,33.07,73.86,73.86Z"/>
        </g>
        <g>
          <path class="cls-1" d="M231.51,231.51h0s-44.32,0-44.32,0c-16.32,0-29.54-13.23-29.54-29.54v-44.32h0c40.79,0,73.86,33.07,73.86,73.86Z"/>
          <path class="cls-1" d="M310.29,310.29h0s-44.32,0-44.32,0c-16.32,0-29.54-13.23-29.54-29.54v-44.32h0c40.79,0,73.86,33.07,73.86,73.86Z"/>
        </g>
        <g>
          <path class="cls-1" d="M389.16,231.51h0s-44.32,0-44.32,0c-16.32,0-29.54-13.23-29.54-29.54v-44.32h0c40.79,0,73.86,33.07,73.86,73.86Z"/>
          <path class="cls-1" d="M467.94,310.29h0s-44.32,0-44.32,0c-16.32,0-29.54-13.23-29.54-29.54v-44.32h0c40.79,0,73.86,33.07,73.86,73.86Z"/>
        </g>
        <g>
          <path class="cls-1" d="M546.8,231.51h0s-44.32,0-44.32,0c-16.32,0-29.54-13.23-29.54-29.54v-44.32h0c40.79,0,73.86,33.07,73.86,73.86Z"/>
          <path class="cls-1" d="M625.59,310.29h0s-44.32,0-44.32,0c-16.32,0-29.54-13.23-29.54-29.54v-44.32h0c40.79,0,73.86,33.07,73.86,73.86Z"/>
        </g>
        <g>
          <path class="cls-1" d="M704.45,231.51h0s-44.32,0-44.32,0c-16.32,0-29.54-13.23-29.54-29.54v-44.32h0c40.79,0,73.86,33.07,73.86,73.86Z"/>
          <path class="cls-1" d="M783.24,310.29h0s-44.32,0-44.32,0c-16.32,0-29.54-13.23-29.54-29.54v-44.32h0c40.79,0,73.86,33.07,73.86,73.86Z"/>
        </g>
        <g>
          <path class="cls-1" d="M862.1,231.51h0s-44.32,0-44.32,0c-16.32,0-29.54-13.23-29.54-29.54v-44.32h0c40.79,0,73.86,33.07,73.86,73.86Z"/>
          <path class="cls-1" d="M940.88,310.29h0s-44.32,0-44.32,0c-16.32,0-29.54-13.23-29.54-29.54v-44.32h0c40.79,0,73.86,33.07,73.86,73.86Z"/>
        </g>
        <g>
          <path class="cls-1" d="M1019.74,231.51h0s-44.32,0-44.32,0c-16.32,0-29.54-13.23-29.54-29.54v-44.32h0c40.79,0,73.86,33.07,73.86,73.86Z"/>
          <path class="cls-1" d="M1098.53,310.29h0s-44.32,0-44.32,0c-16.32,0-29.54-13.23-29.54-29.54v-44.32h0c40.79,0,73.86,33.07,73.86,73.86Z"/>
        </g>
        <g>
          <path class="cls-1" d="M1177.39,231.51h0s-44.32,0-44.32,0c-16.32,0-29.54-13.23-29.54-29.54v-44.32h0c40.79,0,73.86,33.07,73.86,73.86Z"/>
          <path class="cls-1" d="M1256.18,310.29h0s-44.32,0-44.32,0c-16.32,0-29.54-13.23-29.54-29.54v-44.32h0c40.79,0,73.86,33.07,73.86,73.86Z"/>
        </g>
        <g>
          <path class="cls-1" d="M1335.04,231.51h0s-44.32,0-44.32,0c-16.32,0-29.54-13.23-29.54-29.54v-44.32h0c40.79,0,73.86,33.07,73.86,73.86Z"/>
          <path class="cls-1" d="M1413.82,310.29h0s-44.32,0-44.32,0c-16.32,0-29.54-13.23-29.54-29.54v-44.32h0c40.79,0,73.86,33.07,73.86,73.86Z"/>
        </g>
        <g>
          <path class="cls-1" d="M1492.68,231.51h0s-44.32,0-44.32,0c-16.32,0-29.54-13.23-29.54-29.54v-44.32h0c40.79,0,73.86,33.07,73.86,73.86Z"/>
          <path class="cls-1" d="M1571.47,310.29h0s-44.32,0-44.32,0c-16.32,0-29.54-13.23-29.54-29.54v-44.32h0c40.79,0,73.86,33.07,73.86,73.86Z"/>
        </g>
        <g>
          <path class="cls-1" d="M1650.33,231.51h0s-44.32,0-44.32,0c-16.32,0-29.54-13.23-29.54-29.54v-44.32h0c40.79,0,73.86,33.07,73.86,73.86Z"/>
          <path class="cls-1" d="M1729.12,310.29h0s-44.32,0-44.32,0c-16.32,0-29.54-13.23-29.54-29.54v-44.32h0c40.79,0,73.86,33.07,73.86,73.86Z"/>
        </g>
        <g>
          <path class="cls-1" d="M1807.98,231.51h0s-44.32,0-44.32,0c-16.32,0-29.54-13.23-29.54-29.54v-44.32h0c40.79,0,73.86,33.07,73.86,73.86Z"/>
          <path class="cls-1" d="M1886.76,310.29h0s-44.32,0-44.32,0c-16.32,0-29.54-13.23-29.54-29.54v-44.32h0c40.79,0,73.86,33.07,73.86,73.86Z"/>
        </g>
        <g>
          <path class="cls-1" d="M1965.63,231.51h0s-44.32,0-44.32,0c-16.32,0-29.54-13.23-29.54-29.54v-44.32h0c40.79,0,73.86,33.07,73.86,73.86Z"/>
          <path class="cls-1" d="M2044.41,310.29h0s-44.32,0-44.32,0c-16.32,0-29.54-13.23-29.54-29.54v-44.32h0c40.79,0,73.86,33.07,73.86,73.86Z"/>
        </g>
        <g>
          <path class="cls-1" d="M2123.27,231.51h0s-44.32,0-44.32,0c-16.32,0-29.54-13.23-29.54-29.54v-44.32h0c40.79,0,73.86,33.07,73.86,73.86Z"/>
          <path class="cls-1" d="M2202.06,310.29h0s-44.32,0-44.32,0c-16.32,0-29.54-13.23-29.54-29.54v-44.32h0c40.79,0,73.86,33.07,73.86,73.86Z"/>
        </g>
        <g>
          <path class="cls-1" d="M2280.92,231.51h0s-44.32,0-44.32,0c-16.32,0-29.54-13.23-29.54-29.54v-44.32h0c40.79,0,73.86,33.07,73.86,73.86Z"/>
          <path class="cls-1" d="M2359.71,310.29h0s-44.32,0-44.32,0c-16.32,0-29.54-13.23-29.54-29.54v-44.32h0c40.79,0,73.86,33.07,73.86,73.86Z"/>
        </g>
        <g>
          <path class="cls-1" d="M2438.57,231.51h0s-44.32,0-44.32,0c-16.32,0-29.54-13.23-29.54-29.54v-44.32h0c40.79,0,73.86,33.07,73.86,73.86Z"/>
          <path class="cls-1" d="M2517.35,310.29h0s-44.32,0-44.32,0c-16.32,0-29.54-13.23-29.54-29.54v-44.32h0c40.79,0,73.86,33.07,73.86,73.86Z"/>
        </g>
        <g>
          <path class="cls-1" d="M2596.21,231.51h0s-44.32,0-44.32,0c-16.32,0-29.54-13.23-29.54-29.54v-44.32h0c40.79,0,73.86,33.07,73.86,73.86Z"/>
          <path class="cls-1" d="M2675,310.29h0s-44.32,0-44.32,0c-16.32,0-29.54-13.23-29.54-29.54v-44.32h0c40.79,0,73.86,33.07,73.86,73.86Z"/>
        </g>
        <g>
          <path class="cls-1" d="M2753.86,231.51h0s-44.32,0-44.32,0c-16.32,0-29.54-13.23-29.54-29.54v-44.32h0c40.79,0,73.86,33.07,73.86,73.86Z"/>
          <path class="cls-1" d="M2832.65,310.29h0s-44.32,0-44.32,0c-16.32,0-29.54-13.23-29.54-29.54v-44.32h0c40.79,0,73.86,33.07,73.86,73.86Z"/>
        </g>
        <g>
          <path class="cls-1" d="M2911.51,231.51h0s-44.32,0-44.32,0c-16.32,0-29.54-13.23-29.54-29.54v-44.32h0c40.79,0,73.86,33.07,73.86,73.86Z"/>
          <path class="cls-1" d="M2990.29,310.29h0s-44.32,0-44.32,0c-16.32,0-29.54-13.23-29.54-29.54v-44.32h0c40.79,0,73.86,33.07,73.86,73.86Z"/>
        </g>
        <g>
          <path class="cls-1" d="M3069.16,231.51h0s-44.32,0-44.32,0c-16.32,0-29.54-13.23-29.54-29.54v-44.32h0c40.79,0,73.86,33.07,73.86,73.86Z"/>
          <path class="cls-1" d="M3147.94,310.29h0s-44.32,0-44.32,0c-16.32,0-29.54-13.23-29.54-29.54v-44.32h0c40.79,0,73.86,33.07,73.86,73.86Z"/>
        </g>
        <g>
          <path class="cls-1" d="M3226.8,231.51h0s-44.32,0-44.32,0c-16.32,0-29.54-13.23-29.54-29.54v-44.32h0c40.79,0,73.86,33.07,73.86,73.86Z"/>
          <path class="cls-1" d="M3305.59,310.29h0s-44.32,0-44.32,0c-16.32,0-29.54-13.23-29.54-29.54v-44.32h0c40.79,0,73.86,33.07,73.86,73.86Z"/>
        </g>
        <g>
          <path class="cls-1" d="M3384.45,231.51h0s-44.32,0-44.32,0c-16.32,0-29.54-13.23-29.54-29.54v-44.32h0c40.79,0,73.86,33.07,73.86,73.86Z"/>
          <path class="cls-1" d="M3463.24,310.29h0s-44.32,0-44.32,0c-16.32,0-29.54-13.23-29.54-29.54v-44.32h0c40.79,0,73.86,33.07,73.86,73.86Z"/>
        </g>
        <g>
          <path class="cls-1" d="M3542.1,231.51h0s-44.32,0-44.32,0c-16.32,0-29.54-13.23-29.54-29.54v-44.32h0c40.79,0,73.86,33.07,73.86,73.86Z"/>
          <path class="cls-1" d="M3620.88,310.29h0s-44.32,0-44.32,0c-16.32,0-29.54-13.23-29.54-29.54v-44.32h0c40.79,0,73.86,33.07,73.86,73.86Z"/>
        </g>
        <g>
          <path class="cls-1" d="M3699.74,231.51h0s-44.32,0-44.32,0c-16.32,0-29.54-13.23-29.54-29.54v-44.32h0c40.79,0,73.86,33.07,73.86,73.86Z"/>
          <path class="cls-1" d="M3778.53,310.29h0s-44.32,0-44.32,0c-16.32,0-29.54-13.23-29.54-29.54v-44.32h0c40.79,0,73.86,33.07,73.86,73.86Z"/>
        </g>
        <g>
          <path class="cls-1" d="M3857.39,231.51h0s-44.32,0-44.32,0c-16.32,0-29.54-13.23-29.54-29.54v-44.32h0c40.79,0,73.86,33.07,73.86,73.86Z"/>
          <path class="cls-1" d="M3936.18,310.29h0s-44.32,0-44.32,0c-16.32,0-29.54-13.23-29.54-29.54v-44.32h0c40.79,0,73.86,33.07,73.86,73.86Z"/>
        </g>
        <g>
          <path class="cls-1" d="M73.86,389.16h0s-44.32,0-44.32,0C13.23,389.16,0,375.93,0,359.61v-44.32H0c40.79,0,73.86,33.07,73.86,73.86Z"/>
          <path class="cls-1" d="M152.65,467.94h0s-44.32,0-44.32,0c-16.32,0-29.54-13.23-29.54-29.54v-44.32h0c40.79,0,73.86,33.07,73.86,73.86Z"/>
        </g>
        <g>
          <path class="cls-1" d="M231.51,389.16h0s-44.32,0-44.32,0c-16.32,0-29.54-13.23-29.54-29.54v-44.32h0c40.79,0,73.86,33.07,73.86,73.86Z"/>
          <path class="cls-1" d="M310.29,467.94h0s-44.32,0-44.32,0c-16.32,0-29.54-13.23-29.54-29.54v-44.32h0c40.79,0,73.86,33.07,73.86,73.86Z"/>
        </g>
        <g>
          <path class="cls-1" d="M389.16,389.16h0s-44.32,0-44.32,0c-16.32,0-29.54-13.23-29.54-29.54v-44.32h0c40.79,0,73.86,33.07,73.86,73.86Z"/>
          <path class="cls-1" d="M467.94,467.94h0s-44.32,0-44.32,0c-16.32,0-29.54-13.23-29.54-29.54v-44.32h0c40.79,0,73.86,33.07,73.86,73.86Z"/>
        </g>
        <g>
          <path class="cls-1" d="M546.8,389.16h0s-44.32,0-44.32,0c-16.32,0-29.54-13.23-29.54-29.54v-44.32h0c40.79,0,73.86,33.07,73.86,73.86Z"/>
          <path class="cls-1" d="M625.59,467.94h0s-44.32,0-44.32,0c-16.32,0-29.54-13.23-29.54-29.54v-44.32h0c40.79,0,73.86,33.07,73.86,73.86Z"/>
        </g>
        <g>
          <path class="cls-1" d="M704.45,389.16h0s-44.32,0-44.32,0c-16.32,0-29.54-13.23-29.54-29.54v-44.32h0c40.79,0,73.86,33.07,73.86,73.86Z"/>
          <path class="cls-1" d="M783.24,467.94h0s-44.32,0-44.32,0c-16.32,0-29.54-13.23-29.54-29.54v-44.32h0c40.79,0,73.86,33.07,73.86,73.86Z"/>
        </g>
        <g>
          <path class="cls-1" d="M862.1,389.16h0s-44.32,0-44.32,0c-16.32,0-29.54-13.23-29.54-29.54v-44.32h0c40.79,0,73.86,33.07,73.86,73.86Z"/>
          <path class="cls-1" d="M940.88,467.94h0s-44.32,0-44.32,0c-16.32,0-29.54-13.23-29.54-29.54v-44.32h0c40.79,0,73.86,33.07,73.86,73.86Z"/>
        </g>
        <g>
          <path class="cls-1" d="M1019.74,389.16h0s-44.32,0-44.32,0c-16.32,0-29.54-13.23-29.54-29.54v-44.32h0c40.79,0,73.86,33.07,73.86,73.86Z"/>
          <path class="cls-1" d="M1098.53,467.94h0s-44.32,0-44.32,0c-16.32,0-29.54-13.23-29.54-29.54v-44.32h0c40.79,0,73.86,33.07,73.86,73.86Z"/>
        </g>
        <g>
          <path class="cls-1" d="M1177.39,389.16h0s-44.32,0-44.32,0c-16.32,0-29.54-13.23-29.54-29.54v-44.32h0c40.79,0,73.86,33.07,73.86,73.86Z"/>
          <path class="cls-1" d="M1256.18,467.94h0s-44.32,0-44.32,0c-16.32,0-29.54-13.23-29.54-29.54v-44.32h0c40.79,0,73.86,33.07,73.86,73.86Z"/>
        </g>
        <g>
          <path class="cls-1" d="M1335.04,389.16h0s-44.32,0-44.32,0c-16.32,0-29.54-13.23-29.54-29.54v-44.32h0c40.79,0,73.86,33.07,73.86,73.86Z"/>
          <path class="cls-1" d="M1413.82,467.94h0s-44.32,0-44.32,0c-16.32,0-29.54-13.23-29.54-29.54v-44.32h0c40.79,0,73.86,33.07,73.86,73.86Z"/>
        </g>
        <g>
          <path class="cls-1" d="M1492.68,389.16h0s-44.32,0-44.32,0c-16.32,0-29.54-13.23-29.54-29.54v-44.32h0c40.79,0,73.86,33.07,73.86,73.86Z"/>
          <path class="cls-1" d="M1571.47,467.94h0s-44.32,0-44.32,0c-16.32,0-29.54-13.23-29.54-29.54v-44.32h0c40.79,0,73.86,33.07,73.86,73.86Z"/>
        </g>
        <g>
          <path class="cls-1" d="M1650.33,389.16h0s-44.32,0-44.32,0c-16.32,0-29.54-13.23-29.54-29.54v-44.32h0c40.79,0,73.86,33.07,73.86,73.86Z"/>
          <path class="cls-1" d="M1729.12,467.94h0s-44.32,0-44.32,0c-16.32,0-29.54-13.23-29.54-29.54v-44.32h0c40.79,0,73.86,33.07,73.86,73.86Z"/>
        </g>
        <g>
          <path class="cls-1" d="M1807.98,389.16h0s-44.32,0-44.32,0c-16.32,0-29.54-13.23-29.54-29.54v-44.32h0c40.79,0,73.86,33.07,73.86,73.86Z"/>
          <path class="cls-1" d="M1886.76,467.94h0s-44.32,0-44.32,0c-16.32,0-29.54-13.23-29.54-29.54v-44.32h0c40.79,0,73.86,33.07,73.86,73.86Z"/>
        </g>
        <g>
          <path class="cls-1" d="M1965.63,389.16h0s-44.32,0-44.32,0c-16.32,0-29.54-13.23-29.54-29.54v-44.32h0c40.79,0,73.86,33.07,73.86,73.86Z"/>
          <path class="cls-1" d="M2044.41,467.94h0s-44.32,0-44.32,0c-16.32,0-29.54-13.23-29.54-29.54v-44.32h0c40.79,0,73.86,33.07,73.86,73.86Z"/>
        </g>
        <g>
          <path class="cls-1" d="M2123.27,389.16h0s-44.32,0-44.32,0c-16.32,0-29.54-13.23-29.54-29.54v-44.32h0c40.79,0,73.86,33.07,73.86,73.86Z"/>
          <path class="cls-1" d="M2202.06,467.94h0s-44.32,0-44.32,0c-16.32,0-29.54-13.23-29.54-29.54v-44.32h0c40.79,0,73.86,33.07,73.86,73.86Z"/>
        </g>
        <g>
          <path class="cls-1" d="M2280.92,389.16h0s-44.32,0-44.32,0c-16.32,0-29.54-13.23-29.54-29.54v-44.32h0c40.79,0,73.86,33.07,73.86,73.86Z"/>
          <path class="cls-1" d="M2359.71,467.94h0s-44.32,0-44.32,0c-16.32,0-29.54-13.23-29.54-29.54v-44.32h0c40.79,0,73.86,33.07,73.86,73.86Z"/>
        </g>
        <g>
          <path class="cls-1" d="M2438.57,389.16h0s-44.32,0-44.32,0c-16.32,0-29.54-13.23-29.54-29.54v-44.32h0c40.79,0,73.86,33.07,73.86,73.86Z"/>
          <path class="cls-1" d="M2517.35,467.94h0s-44.32,0-44.32,0c-16.32,0-29.54-13.23-29.54-29.54v-44.32h0c40.79,0,73.86,33.07,73.86,73.86Z"/>
        </g>
        <g>
          <path class="cls-1" d="M2596.21,389.16h0s-44.32,0-44.32,0c-16.32,0-29.54-13.23-29.54-29.54v-44.32h0c40.79,0,73.86,33.07,73.86,73.86Z"/>
          <path class="cls-1" d="M2675,467.94h0s-44.32,0-44.32,0c-16.32,0-29.54-13.23-29.54-29.54v-44.32h0c40.79,0,73.86,33.07,73.86,73.86Z"/>
        </g>
        <g>
          <path class="cls-1" d="M2753.86,389.16h0s-44.32,0-44.32,0c-16.32,0-29.54-13.23-29.54-29.54v-44.32h0c40.79,0,73.86,33.07,73.86,73.86Z"/>
          <path class="cls-1" d="M2832.65,467.94h0s-44.32,0-44.32,0c-16.32,0-29.54-13.23-29.54-29.54v-44.32h0c40.79,0,73.86,33.07,73.86,73.86Z"/>
        </g>
        <g>
          <path class="cls-1" d="M2911.51,389.16h0s-44.32,0-44.32,0c-16.32,0-29.54-13.23-29.54-29.54v-44.32h0c40.79,0,73.86,33.07,73.86,73.86Z"/>
          <path class="cls-1" d="M2990.29,467.94h0s-44.32,0-44.32,0c-16.32,0-29.54-13.23-29.54-29.54v-44.32h0c40.79,0,73.86,33.07,73.86,73.86Z"/>
        </g>
        <g>
          <path class="cls-1" d="M3069.16,389.16h0s-44.32,0-44.32,0c-16.32,0-29.54-13.23-29.54-29.54v-44.32h0c40.79,0,73.86,33.07,73.86,73.86Z"/>
          <path class="cls-1" d="M3147.94,467.94h0s-44.32,0-44.32,0c-16.32,0-29.54-13.23-29.54-29.54v-44.32h0c40.79,0,73.86,33.07,73.86,73.86Z"/>
        </g>
        <g>
          <path class="cls-1" d="M3226.8,389.16h0s-44.32,0-44.32,0c-16.32,0-29.54-13.23-29.54-29.54v-44.32h0c40.79,0,73.86,33.07,73.86,73.86Z"/>
          <path class="cls-1" d="M3305.59,467.94h0s-44.32,0-44.32,0c-16.32,0-29.54-13.23-29.54-29.54v-44.32h0c40.79,0,73.86,33.07,73.86,73.86Z"/>
        </g>
        <g>
          <path class="cls-1" d="M3384.45,389.16h0s-44.32,0-44.32,0c-16.32,0-29.54-13.23-29.54-29.54v-44.32h0c40.79,0,73.86,33.07,73.86,73.86Z"/>
          <path class="cls-1" d="M3463.24,467.94h0s-44.32,0-44.32,0c-16.32,0-29.54-13.23-29.54-29.54v-44.32h0c40.79,0,73.86,33.07,73.86,73.86Z"/>
        </g>
        <g>
          <path class="cls-1" d="M3542.1,389.16h0s-44.32,0-44.32,0c-16.32,0-29.54-13.23-29.54-29.54v-44.32h0c40.79,0,73.86,33.07,73.86,73.86Z"/>
          <path class="cls-1" d="M3620.88,467.94h0s-44.32,0-44.32,0c-16.32,0-29.54-13.23-29.54-29.54v-44.32h0c40.79,0,73.86,33.07,73.86,73.86Z"/>
        </g>
        <g>
          <path class="cls-1" d="M3699.74,389.16h0s-44.32,0-44.32,0c-16.32,0-29.54-13.23-29.54-29.54v-44.32h0c40.79,0,73.86,33.07,73.86,73.86Z"/>
          <path class="cls-1" d="M3778.53,467.94h0s-44.32,0-44.32,0c-16.32,0-29.54-13.23-29.54-29.54v-44.32h0c40.79,0,73.86,33.07,73.86,73.86Z"/>
        </g>
        <g>
          <path class="cls-1" d="M3857.39,389.16h0s-44.32,0-44.32,0c-16.32,0-29.54-13.23-29.54-29.54v-44.32h0c40.79,0,73.86,33.07,73.86,73.86Z"/>
          <path class="cls-1" d="M3936.18,467.94h0s-44.32,0-44.32,0c-16.32,0-29.54-13.23-29.54-29.54v-44.32h0c40.79,0,73.86,33.07,73.86,73.86Z"/>
        </g>
        <g>
          <path class="cls-1" d="M73.86,546.8h0s-44.32,0-44.32,0C13.23,546.8,0,533.58,0,517.26v-44.32H0c40.79,0,73.86,33.07,73.86,73.86Z"/>
          <path class="cls-1" d="M152.65,625.59h0s-44.32,0-44.32,0c-16.32,0-29.54-13.23-29.54-29.54v-44.32h0c40.79,0,73.86,33.07,73.86,73.86Z"/>
        </g>
        <g>
          <path class="cls-1" d="M231.51,546.8h0s-44.32,0-44.32,0c-16.32,0-29.54-13.23-29.54-29.54v-44.32h0c40.79,0,73.86,33.07,73.86,73.86Z"/>
          <path class="cls-1" d="M310.29,625.59h0s-44.32,0-44.32,0c-16.32,0-29.54-13.23-29.54-29.54v-44.32h0c40.79,0,73.86,33.07,73.86,73.86Z"/>
        </g>
        <g>
          <path class="cls-1" d="M389.16,546.8h0s-44.32,0-44.32,0c-16.32,0-29.54-13.23-29.54-29.54v-44.32h0c40.79,0,73.86,33.07,73.86,73.86Z"/>
          <path class="cls-1" d="M467.94,625.59h0s-44.32,0-44.32,0c-16.32,0-29.54-13.23-29.54-29.54v-44.32h0c40.79,0,73.86,33.07,73.86,73.86Z"/>
        </g>
        <g>
          <path class="cls-1" d="M546.8,546.8h0s-44.32,0-44.32,0c-16.32,0-29.54-13.23-29.54-29.54v-44.32h0c40.79,0,73.86,33.07,73.86,73.86Z"/>
          <path class="cls-1" d="M625.59,625.59h0s-44.32,0-44.32,0c-16.32,0-29.54-13.23-29.54-29.54v-44.32h0c40.79,0,73.86,33.07,73.86,73.86Z"/>
        </g>
        <g>
          <path class="cls-1" d="M704.45,546.8h0s-44.32,0-44.32,0c-16.32,0-29.54-13.23-29.54-29.54v-44.32h0c40.79,0,73.86,33.07,73.86,73.86Z"/>
          <path class="cls-1" d="M783.24,625.59h0s-44.32,0-44.32,0c-16.32,0-29.54-13.23-29.54-29.54v-44.32h0c40.79,0,73.86,33.07,73.86,73.86Z"/>
        </g>
        <g>
          <path class="cls-1" d="M862.1,546.8h0s-44.32,0-44.32,0c-16.32,0-29.54-13.23-29.54-29.54v-44.32h0c40.79,0,73.86,33.07,73.86,73.86Z"/>
          <path class="cls-1" d="M940.88,625.59h0s-44.32,0-44.32,0c-16.32,0-29.54-13.23-29.54-29.54v-44.32h0c40.79,0,73.86,33.07,73.86,73.86Z"/>
        </g>
        <g>
          <path class="cls-1" d="M1019.74,546.8h0s-44.32,0-44.32,0c-16.32,0-29.54-13.23-29.54-29.54v-44.32h0c40.79,0,73.86,33.07,73.86,73.86Z"/>
          <path class="cls-1" d="M1098.53,625.59h0s-44.32,0-44.32,0c-16.32,0-29.54-13.23-29.54-29.54v-44.32h0c40.79,0,73.86,33.07,73.86,73.86Z"/>
        </g>
        <g>
          <path class="cls-1" d="M1177.39,546.8h0s-44.32,0-44.32,0c-16.32,0-29.54-13.23-29.54-29.54v-44.32h0c40.79,0,73.86,33.07,73.86,73.86Z"/>
          <path class="cls-1" d="M1256.18,625.59h0s-44.32,0-44.32,0c-16.32,0-29.54-13.23-29.54-29.54v-44.32h0c40.79,0,73.86,33.07,73.86,73.86Z"/>
        </g>
        <g>
          <path class="cls-1" d="M1335.04,546.8h0s-44.32,0-44.32,0c-16.32,0-29.54-13.23-29.54-29.54v-44.32h0c40.79,0,73.86,33.07,73.86,73.86Z"/>
          <path class="cls-1" d="M1413.82,625.59h0s-44.32,0-44.32,0c-16.32,0-29.54-13.23-29.54-29.54v-44.32h0c40.79,0,73.86,33.07,73.86,73.86Z"/>
        </g>
        <g>
          <path class="cls-1" d="M1492.68,546.8h0s-44.32,0-44.32,0c-16.32,0-29.54-13.23-29.54-29.54v-44.32h0c40.79,0,73.86,33.07,73.86,73.86Z"/>
          <path class="cls-1" d="M1571.47,625.59h0s-44.32,0-44.32,0c-16.32,0-29.54-13.23-29.54-29.54v-44.32h0c40.79,0,73.86,33.07,73.86,73.86Z"/>
        </g>
        <g>
          <path class="cls-1" d="M1650.33,546.8h0s-44.32,0-44.32,0c-16.32,0-29.54-13.23-29.54-29.54v-44.32h0c40.79,0,73.86,33.07,73.86,73.86Z"/>
          <path class="cls-1" d="M1729.12,625.59h0s-44.32,0-44.32,0c-16.32,0-29.54-13.23-29.54-29.54v-44.32h0c40.79,0,73.86,33.07,73.86,73.86Z"/>
        </g>
        <g>
          <path class="cls-1" d="M1807.98,546.8h0s-44.32,0-44.32,0c-16.32,0-29.54-13.23-29.54-29.54v-44.32h0c40.79,0,73.86,33.07,73.86,73.86Z"/>
          <path class="cls-1" d="M1886.76,625.59h0s-44.32,0-44.32,0c-16.32,0-29.54-13.23-29.54-29.54v-44.32h0c40.79,0,73.86,33.07,73.86,73.86Z"/>
        </g>
        <g>
          <path class="cls-1" d="M1965.63,546.8h0s-44.32,0-44.32,0c-16.32,0-29.54-13.23-29.54-29.54v-44.32h0c40.79,0,73.86,33.07,73.86,73.86Z"/>
          <path class="cls-1" d="M2044.41,625.59h0s-44.32,0-44.32,0c-16.32,0-29.54-13.23-29.54-29.54v-44.32h0c40.79,0,73.86,33.07,73.86,73.86Z"/>
        </g>
        <g>
          <path class="cls-1" d="M2123.27,546.8h0s-44.32,0-44.32,0c-16.32,0-29.54-13.23-29.54-29.54v-44.32h0c40.79,0,73.86,33.07,73.86,73.86Z"/>
          <path class="cls-1" d="M2202.06,625.59h0s-44.32,0-44.32,0c-16.32,0-29.54-13.23-29.54-29.54v-44.32h0c40.79,0,73.86,33.07,73.86,73.86Z"/>
        </g>
        <g>
          <path class="cls-1" d="M2280.92,546.8h0s-44.32,0-44.32,0c-16.32,0-29.54-13.23-29.54-29.54v-44.32h0c40.79,0,73.86,33.07,73.86,73.86Z"/>
          <path class="cls-1" d="M2359.71,625.59h0s-44.32,0-44.32,0c-16.32,0-29.54-13.23-29.54-29.54v-44.32h0c40.79,0,73.86,33.07,73.86,73.86Z"/>
        </g>
        <g>
          <path class="cls-1" d="M2438.57,546.8h0s-44.32,0-44.32,0c-16.32,0-29.54-13.23-29.54-29.54v-44.32h0c40.79,0,73.86,33.07,73.86,73.86Z"/>
          <path class="cls-1" d="M2517.35,625.59h0s-44.32,0-44.32,0c-16.32,0-29.54-13.23-29.54-29.54v-44.32h0c40.79,0,73.86,33.07,73.86,73.86Z"/>
        </g>
        <g>
          <path class="cls-1" d="M2596.21,546.8h0s-44.32,0-44.32,0c-16.32,0-29.54-13.23-29.54-29.54v-44.32h0c40.79,0,73.86,33.07,73.86,73.86Z"/>
          <path class="cls-1" d="M2675,625.59h0s-44.32,0-44.32,0c-16.32,0-29.54-13.23-29.54-29.54v-44.32h0c40.79,0,73.86,33.07,73.86,73.86Z"/>
        </g>
        <g>
          <path class="cls-1" d="M2753.86,546.8h0s-44.32,0-44.32,0c-16.32,0-29.54-13.23-29.54-29.54v-44.32h0c40.79,0,73.86,33.07,73.86,73.86Z"/>
          <path class="cls-1" d="M2832.65,625.59h0s-44.32,0-44.32,0c-16.32,0-29.54-13.23-29.54-29.54v-44.32h0c40.79,0,73.86,33.07,73.86,73.86Z"/>
        </g>
        <g>
          <path class="cls-1" d="M2911.51,546.8h0s-44.32,0-44.32,0c-16.32,0-29.54-13.23-29.54-29.54v-44.32h0c40.79,0,73.86,33.07,73.86,73.86Z"/>
          <path class="cls-1" d="M2990.29,625.59h0s-44.32,0-44.32,0c-16.32,0-29.54-13.23-29.54-29.54v-44.32h0c40.79,0,73.86,33.07,73.86,73.86Z"/>
        </g>
        <g>
          <path class="cls-1" d="M3069.16,546.8h0s-44.32,0-44.32,0c-16.32,0-29.54-13.23-29.54-29.54v-44.32h0c40.79,0,73.86,33.07,73.86,73.86Z"/>
          <path class="cls-1" d="M3147.94,625.59h0s-44.32,0-44.32,0c-16.32,0-29.54-13.23-29.54-29.54v-44.32h0c40.79,0,73.86,33.07,73.86,73.86Z"/>
        </g>
        <g>
          <path class="cls-1" d="M3226.8,546.8h0s-44.32,0-44.32,0c-16.32,0-29.54-13.23-29.54-29.54v-44.32h0c40.79,0,73.86,33.07,73.86,73.86Z"/>
          <path class="cls-1" d="M3305.59,625.59h0s-44.32,0-44.32,0c-16.32,0-29.54-13.23-29.54-29.54v-44.32h0c40.79,0,73.86,33.07,73.86,73.86Z"/>
        </g>
        <g>
          <path class="cls-1" d="M3384.45,546.8h0s-44.32,0-44.32,0c-16.32,0-29.54-13.23-29.54-29.54v-44.32h0c40.79,0,73.86,33.07,73.86,73.86Z"/>
          <path class="cls-1" d="M3463.24,625.59h0s-44.32,0-44.32,0c-16.32,0-29.54-13.23-29.54-29.54v-44.32h0c40.79,0,73.86,33.07,73.86,73.86Z"/>
        </g>
        <g>
          <path class="cls-1" d="M3542.1,546.8h0s-44.32,0-44.32,0c-16.32,0-29.54-13.23-29.54-29.54v-44.32h0c40.79,0,73.86,33.07,73.86,73.86Z"/>
          <path class="cls-1" d="M3620.88,625.59h0s-44.32,0-44.32,0c-16.32,0-29.54-13.23-29.54-29.54v-44.32h0c40.79,0,73.86,33.07,73.86,73.86Z"/>
        </g>
        <g>
          <path class="cls-1" d="M3699.74,546.8h0s-44.32,0-44.32,0c-16.32,0-29.54-13.23-29.54-29.54v-44.32h0c40.79,0,73.86,33.07,73.86,73.86Z"/>
          <path class="cls-1" d="M3778.53,625.59h0s-44.32,0-44.32,0c-16.32,0-29.54-13.23-29.54-29.54v-44.32h0c40.79,0,73.86,33.07,73.86,73.86Z"/>
        </g>
        <g>
          <path class="cls-1" d="M3857.39,546.8h0s-44.32,0-44.32,0c-16.32,0-29.54-13.23-29.54-29.54v-44.32h0c40.79,0,73.86,33.07,73.86,73.86Z"/>
          <path class="cls-1" d="M3936.18,625.59h0s-44.32,0-44.32,0c-16.32,0-29.54-13.23-29.54-29.54v-44.32h0c40.79,0,73.86,33.07,73.86,73.86Z"/>
        </g>
        <g>
          <path class="cls-1" d="M73.86,704.45h0s-44.32,0-44.32,0C13.23,704.45,0,691.22,0,674.91v-44.32H0c40.79,0,73.86,33.07,73.86,73.86Z"/>
          <path class="cls-1" d="M152.65,783.24h0s-44.32,0-44.32,0c-16.32,0-29.54-13.23-29.54-29.54v-44.32h0c40.79,0,73.86,33.07,73.86,73.86Z"/>
        </g>
        <g>
          <path class="cls-1" d="M231.51,704.45h0s-44.32,0-44.32,0c-16.32,0-29.54-13.23-29.54-29.54v-44.32h0c40.79,0,73.86,33.07,73.86,73.86Z"/>
          <path class="cls-1" d="M310.29,783.24h0s-44.32,0-44.32,0c-16.32,0-29.54-13.23-29.54-29.54v-44.32h0c40.79,0,73.86,33.07,73.86,73.86Z"/>
        </g>
        <g>
          <path class="cls-1" d="M389.16,704.45h0s-44.32,0-44.32,0c-16.32,0-29.54-13.23-29.54-29.54v-44.32h0c40.79,0,73.86,33.07,73.86,73.86Z"/>
          <path class="cls-1" d="M467.94,783.24h0s-44.32,0-44.32,0c-16.32,0-29.54-13.23-29.54-29.54v-44.32h0c40.79,0,73.86,33.07,73.86,73.86Z"/>
        </g>
        <g>
          <path class="cls-1" d="M546.8,704.45h0s-44.32,0-44.32,0c-16.32,0-29.54-13.23-29.54-29.54v-44.32h0c40.79,0,73.86,33.07,73.86,73.86Z"/>
          <path class="cls-1" d="M625.59,783.24h0s-44.32,0-44.32,0c-16.32,0-29.54-13.23-29.54-29.54v-44.32h0c40.79,0,73.86,33.07,73.86,73.86Z"/>
        </g>
        <g>
          <path class="cls-1" d="M704.45,704.45h0s-44.32,0-44.32,0c-16.32,0-29.54-13.23-29.54-29.54v-44.32h0c40.79,0,73.86,33.07,73.86,73.86Z"/>
          <path class="cls-1" d="M783.24,783.24h0s-44.32,0-44.32,0c-16.32,0-29.54-13.23-29.54-29.54v-44.32h0c40.79,0,73.86,33.07,73.86,73.86Z"/>
        </g>
        <g>
          <path class="cls-1" d="M862.1,704.45h0s-44.32,0-44.32,0c-16.32,0-29.54-13.23-29.54-29.54v-44.32h0c40.79,0,73.86,33.07,73.86,73.86Z"/>
          <path class="cls-1" d="M940.88,783.24h0s-44.32,0-44.32,0c-16.32,0-29.54-13.23-29.54-29.54v-44.32h0c40.79,0,73.86,33.07,73.86,73.86Z"/>
        </g>
        <g>
          <path class="cls-1" d="M1019.74,704.45h0s-44.32,0-44.32,0c-16.32,0-29.54-13.23-29.54-29.54v-44.32h0c40.79,0,73.86,33.07,73.86,73.86Z"/>
          <path class="cls-1" d="M1098.53,783.24h0s-44.32,0-44.32,0c-16.32,0-29.54-13.23-29.54-29.54v-44.32h0c40.79,0,73.86,33.07,73.86,73.86Z"/>
        </g>
        <g>
          <path class="cls-1" d="M1177.39,704.45h0s-44.32,0-44.32,0c-16.32,0-29.54-13.23-29.54-29.54v-44.32h0c40.79,0,73.86,33.07,73.86,73.86Z"/>
          <path class="cls-1" d="M1256.18,783.24h0s-44.32,0-44.32,0c-16.32,0-29.54-13.23-29.54-29.54v-44.32h0c40.79,0,73.86,33.07,73.86,73.86Z"/>
        </g>
        <g>
          <path class="cls-1" d="M1335.04,704.45h0s-44.32,0-44.32,0c-16.32,0-29.54-13.23-29.54-29.54v-44.32h0c40.79,0,73.86,33.07,73.86,73.86Z"/>
          <path class="cls-1" d="M1413.82,783.24h0s-44.32,0-44.32,0c-16.32,0-29.54-13.23-29.54-29.54v-44.32h0c40.79,0,73.86,33.07,73.86,73.86Z"/>
        </g>
        <g>
          <path class="cls-1" d="M1492.68,704.45h0s-44.32,0-44.32,0c-16.32,0-29.54-13.23-29.54-29.54v-44.32h0c40.79,0,73.86,33.07,73.86,73.86Z"/>
          <path class="cls-1" d="M1571.47,783.24h0s-44.32,0-44.32,0c-16.32,0-29.54-13.23-29.54-29.54v-44.32h0c40.79,0,73.86,33.07,73.86,73.86Z"/>
        </g>
        <g>
          <path class="cls-1" d="M1650.33,704.45h0s-44.32,0-44.32,0c-16.32,0-29.54-13.23-29.54-29.54v-44.32h0c40.79,0,73.86,33.07,73.86,73.86Z"/>
          <path class="cls-1" d="M1729.12,783.24h0s-44.32,0-44.32,0c-16.32,0-29.54-13.23-29.54-29.54v-44.32h0c40.79,0,73.86,33.07,73.86,73.86Z"/>
        </g>
        <g>
          <path class="cls-1" d="M1807.98,704.45h0s-44.32,0-44.32,0c-16.32,0-29.54-13.23-29.54-29.54v-44.32h0c40.79,0,73.86,33.07,73.86,73.86Z"/>
          <path class="cls-1" d="M1886.76,783.24h0s-44.32,0-44.32,0c-16.32,0-29.54-13.23-29.54-29.54v-44.32h0c40.79,0,73.86,33.07,73.86,73.86Z"/>
        </g>
        <g>
          <path class="cls-1" d="M1965.63,704.45h0s-44.32,0-44.32,0c-16.32,0-29.54-13.23-29.54-29.54v-44.32h0c40.79,0,73.86,33.07,73.86,73.86Z"/>
          <path class="cls-1" d="M2044.41,783.24h0s-44.32,0-44.32,0c-16.32,0-29.54-13.23-29.54-29.54v-44.32h0c40.79,0,73.86,33.07,73.86,73.86Z"/>
        </g>
        <g>
          <path class="cls-1" d="M2123.27,704.45h0s-44.32,0-44.32,0c-16.32,0-29.54-13.23-29.54-29.54v-44.32h0c40.79,0,73.86,33.07,73.86,73.86Z"/>
          <path class="cls-1" d="M2202.06,783.24h0s-44.32,0-44.32,0c-16.32,0-29.54-13.23-29.54-29.54v-44.32h0c40.79,0,73.86,33.07,73.86,73.86Z"/>
        </g>
        <g>
          <path class="cls-1" d="M2280.92,704.45h0s-44.32,0-44.32,0c-16.32,0-29.54-13.23-29.54-29.54v-44.32h0c40.79,0,73.86,33.07,73.86,73.86Z"/>
          <path class="cls-1" d="M2359.71,783.24h0s-44.32,0-44.32,0c-16.32,0-29.54-13.23-29.54-29.54v-44.32h0c40.79,0,73.86,33.07,73.86,73.86Z"/>
        </g>
        <g>
          <path class="cls-1" d="M2438.57,704.45h0s-44.32,0-44.32,0c-16.32,0-29.54-13.23-29.54-29.54v-44.32h0c40.79,0,73.86,33.07,73.86,73.86Z"/>
          <path class="cls-1" d="M2517.35,783.24h0s-44.32,0-44.32,0c-16.32,0-29.54-13.23-29.54-29.54v-44.32h0c40.79,0,73.86,33.07,73.86,73.86Z"/>
        </g>
        <g>
          <path class="cls-1" d="M2596.21,704.45h0s-44.32,0-44.32,0c-16.32,0-29.54-13.23-29.54-29.54v-44.32h0c40.79,0,73.86,33.07,73.86,73.86Z"/>
          <path class="cls-1" d="M2675,783.24h0s-44.32,0-44.32,0c-16.32,0-29.54-13.23-29.54-29.54v-44.32h0c40.79,0,73.86,33.07,73.86,73.86Z"/>
        </g>
        <g>
          <path class="cls-1" d="M2753.86,704.45h0s-44.32,0-44.32,0c-16.32,0-29.54-13.23-29.54-29.54v-44.32h0c40.79,0,73.86,33.07,73.86,73.86Z"/>
          <path class="cls-1" d="M2832.65,783.24h0s-44.32,0-44.32,0c-16.32,0-29.54-13.23-29.54-29.54v-44.32h0c40.79,0,73.86,33.07,73.86,73.86Z"/>
        </g>
        <g>
          <path class="cls-1" d="M2911.51,704.45h0s-44.32,0-44.32,0c-16.32,0-29.54-13.23-29.54-29.54v-44.32h0c40.79,0,73.86,33.07,73.86,73.86Z"/>
          <path class="cls-1" d="M2990.29,783.24h0s-44.32,0-44.32,0c-16.32,0-29.54-13.23-29.54-29.54v-44.32h0c40.79,0,73.86,33.07,73.86,73.86Z"/>
        </g>
        <g>
          <path class="cls-1" d="M3069.16,704.45h0s-44.32,0-44.32,0c-16.32,0-29.54-13.23-29.54-29.54v-44.32h0c40.79,0,73.86,33.07,73.86,73.86Z"/>
          <path class="cls-1" d="M3147.94,783.24h0s-44.32,0-44.32,0c-16.32,0-29.54-13.23-29.54-29.54v-44.32h0c40.79,0,73.86,33.07,73.86,73.86Z"/>
        </g>
        <g>
          <path class="cls-1" d="M3226.8,704.45h0s-44.32,0-44.32,0c-16.32,0-29.54-13.23-29.54-29.54v-44.32h0c40.79,0,73.86,33.07,73.86,73.86Z"/>
          <path class="cls-1" d="M3305.59,783.24h0s-44.32,0-44.32,0c-16.32,0-29.54-13.23-29.54-29.54v-44.32h0c40.79,0,73.86,33.07,73.86,73.86Z"/>
        </g>
        <g>
          <path class="cls-1" d="M3384.45,704.45h0s-44.32,0-44.32,0c-16.32,0-29.54-13.23-29.54-29.54v-44.32h0c40.79,0,73.86,33.07,73.86,73.86Z"/>
          <path class="cls-1" d="M3463.24,783.24h0s-44.32,0-44.32,0c-16.32,0-29.54-13.23-29.54-29.54v-44.32h0c40.79,0,73.86,33.07,73.86,73.86Z"/>
        </g>
        <g>
          <path class="cls-1" d="M3542.1,704.45h0s-44.32,0-44.32,0c-16.32,0-29.54-13.23-29.54-29.54v-44.32h0c40.79,0,73.86,33.07,73.86,73.86Z"/>
          <path class="cls-1" d="M3620.88,783.24h0s-44.32,0-44.32,0c-16.32,0-29.54-13.23-29.54-29.54v-44.32h0c40.79,0,73.86,33.07,73.86,73.86Z"/>
        </g>
        <g>
          <path class="cls-1" d="M3699.74,704.45h0s-44.32,0-44.32,0c-16.32,0-29.54-13.23-29.54-29.54v-44.32h0c40.79,0,73.86,33.07,73.86,73.86Z"/>
          <path class="cls-1" d="M3778.53,783.24h0s-44.32,0-44.32,0c-16.32,0-29.54-13.23-29.54-29.54v-44.32h0c40.79,0,73.86,33.07,73.86,73.86Z"/>
        </g>
        <g>
          <path class="cls-1" d="M3857.39,704.45h0s-44.32,0-44.32,0c-16.32,0-29.54-13.23-29.54-29.54v-44.32h0c40.79,0,73.86,33.07,73.86,73.86Z"/>
          <path class="cls-1" d="M3936.18,783.24h0s-44.32,0-44.32,0c-16.32,0-29.54-13.23-29.54-29.54v-44.32h0c40.79,0,73.86,33.07,73.86,73.86Z"/>
        </g>
        <g>
          <path class="cls-1" d="M73.86,862.1h0s-44.32,0-44.32,0C13.23,862.1,0,848.87,0,832.55v-44.32H0c40.79,0,73.86,33.07,73.86,73.86Z"/>
          <path class="cls-1" d="M152.65,940.88h0s-44.32,0-44.32,0c-16.32,0-29.54-13.23-29.54-29.54v-44.32h0c40.79,0,73.86,33.07,73.86,73.86Z"/>
        </g>
        <g>
          <path class="cls-1" d="M231.51,862.1h0s-44.32,0-44.32,0c-16.32,0-29.54-13.23-29.54-29.54v-44.32h0c40.79,0,73.86,33.07,73.86,73.86Z"/>
          <path class="cls-1" d="M310.29,940.88h0s-44.32,0-44.32,0c-16.32,0-29.54-13.23-29.54-29.54v-44.32h0c40.79,0,73.86,33.07,73.86,73.86Z"/>
        </g>
        <g>
          <path class="cls-1" d="M389.16,862.1h0s-44.32,0-44.32,0c-16.32,0-29.54-13.23-29.54-29.54v-44.32h0c40.79,0,73.86,33.07,73.86,73.86Z"/>
          <path class="cls-1" d="M467.94,940.88h0s-44.32,0-44.32,0c-16.32,0-29.54-13.23-29.54-29.54v-44.32h0c40.79,0,73.86,33.07,73.86,73.86Z"/>
        </g>
        <g>
          <path class="cls-1" d="M546.8,862.1h0s-44.32,0-44.32,0c-16.32,0-29.54-13.23-29.54-29.54v-44.32h0c40.79,0,73.86,33.07,73.86,73.86Z"/>
          <path class="cls-1" d="M625.59,940.88h0s-44.32,0-44.32,0c-16.32,0-29.54-13.23-29.54-29.54v-44.32h0c40.79,0,73.86,33.07,73.86,73.86Z"/>
        </g>
        <g>
          <path class="cls-1" d="M704.45,862.1h0s-44.32,0-44.32,0c-16.32,0-29.54-13.23-29.54-29.54v-44.32h0c40.79,0,73.86,33.07,73.86,73.86Z"/>
          <path class="cls-1" d="M783.24,940.88h0s-44.32,0-44.32,0c-16.32,0-29.54-13.23-29.54-29.54v-44.32h0c40.79,0,73.86,33.07,73.86,73.86Z"/>
        </g>
        <g>
          <path class="cls-1" d="M862.1,862.1h0s-44.32,0-44.32,0c-16.32,0-29.54-13.23-29.54-29.54v-44.32h0c40.79,0,73.86,33.07,73.86,73.86Z"/>
          <path class="cls-1" d="M940.88,940.88h0s-44.32,0-44.32,0c-16.32,0-29.54-13.23-29.54-29.54v-44.32h0c40.79,0,73.86,33.07,73.86,73.86Z"/>
        </g>
        <g>
          <path class="cls-1" d="M1019.74,862.1h0s-44.32,0-44.32,0c-16.32,0-29.54-13.23-29.54-29.54v-44.32h0c40.79,0,73.86,33.07,73.86,73.86Z"/>
          <path class="cls-1" d="M1098.53,940.88h0s-44.32,0-44.32,0c-16.32,0-29.54-13.23-29.54-29.54v-44.32h0c40.79,0,73.86,33.07,73.86,73.86Z"/>
        </g>
        <g>
          <path class="cls-1" d="M1177.39,862.1h0s-44.32,0-44.32,0c-16.32,0-29.54-13.23-29.54-29.54v-44.32h0c40.79,0,73.86,33.07,73.86,73.86Z"/>
          <path class="cls-1" d="M1256.18,940.88h0s-44.32,0-44.32,0c-16.32,0-29.54-13.23-29.54-29.54v-44.32h0c40.79,0,73.86,33.07,73.86,73.86Z"/>
        </g>
        <g>
          <path class="cls-1" d="M1335.04,862.1h0s-44.32,0-44.32,0c-16.32,0-29.54-13.23-29.54-29.54v-44.32h0c40.79,0,73.86,33.07,73.86,73.86Z"/>
          <path class="cls-1" d="M1413.82,940.88h0s-44.32,0-44.32,0c-16.32,0-29.54-13.23-29.54-29.54v-44.32h0c40.79,0,73.86,33.07,73.86,73.86Z"/>
        </g>
        <g>
          <path class="cls-1" d="M1492.68,862.1h0s-44.32,0-44.32,0c-16.32,0-29.54-13.23-29.54-29.54v-44.32h0c40.79,0,73.86,33.07,73.86,73.86Z"/>
          <path class="cls-1" d="M1571.47,940.88h0s-44.32,0-44.32,0c-16.32,0-29.54-13.23-29.54-29.54v-44.32h0c40.79,0,73.86,33.07,73.86,73.86Z"/>
        </g>
        <g>
          <path class="cls-1" d="M1650.33,862.1h0s-44.32,0-44.32,0c-16.32,0-29.54-13.23-29.54-29.54v-44.32h0c40.79,0,73.86,33.07,73.86,73.86Z"/>
          <path class="cls-1" d="M1729.12,940.88h0s-44.32,0-44.32,0c-16.32,0-29.54-13.23-29.54-29.54v-44.32h0c40.79,0,73.86,33.07,73.86,73.86Z"/>
        </g>
        <g>
          <path class="cls-1" d="M1807.98,862.1h0s-44.32,0-44.32,0c-16.32,0-29.54-13.23-29.54-29.54v-44.32h0c40.79,0,73.86,33.07,73.86,73.86Z"/>
          <path class="cls-1" d="M1886.76,940.88h0s-44.32,0-44.32,0c-16.32,0-29.54-13.23-29.54-29.54v-44.32h0c40.79,0,73.86,33.07,73.86,73.86Z"/>
        </g>
        <g>
          <path class="cls-1" d="M1965.63,862.1h0s-44.32,0-44.32,0c-16.32,0-29.54-13.23-29.54-29.54v-44.32h0c40.79,0,73.86,33.07,73.86,73.86Z"/>
          <path class="cls-1" d="M2044.41,940.88h0s-44.32,0-44.32,0c-16.32,0-29.54-13.23-29.54-29.54v-44.32h0c40.79,0,73.86,33.07,73.86,73.86Z"/>
        </g>
        <g>
          <path class="cls-1" d="M2123.27,862.1h0s-44.32,0-44.32,0c-16.32,0-29.54-13.23-29.54-29.54v-44.32h0c40.79,0,73.86,33.07,73.86,73.86Z"/>
          <path class="cls-1" d="M2202.06,940.88h0s-44.32,0-44.32,0c-16.32,0-29.54-13.23-29.54-29.54v-44.32h0c40.79,0,73.86,33.07,73.86,73.86Z"/>
        </g>
        <g>
          <path class="cls-1" d="M2280.92,862.1h0s-44.32,0-44.32,0c-16.32,0-29.54-13.23-29.54-29.54v-44.32h0c40.79,0,73.86,33.07,73.86,73.86Z"/>
          <path class="cls-1" d="M2359.71,940.88h0s-44.32,0-44.32,0c-16.32,0-29.54-13.23-29.54-29.54v-44.32h0c40.79,0,73.86,33.07,73.86,73.86Z"/>
        </g>
        <g>
          <path class="cls-1" d="M2438.57,862.1h0s-44.32,0-44.32,0c-16.32,0-29.54-13.23-29.54-29.54v-44.32h0c40.79,0,73.86,33.07,73.86,73.86Z"/>
          <path class="cls-1" d="M2517.35,940.88h0s-44.32,0-44.32,0c-16.32,0-29.54-13.23-29.54-29.54v-44.32h0c40.79,0,73.86,33.07,73.86,73.86Z"/>
        </g>
        <g>
          <path class="cls-1" d="M2596.21,862.1h0s-44.32,0-44.32,0c-16.32,0-29.54-13.23-29.54-29.54v-44.32h0c40.79,0,73.86,33.07,73.86,73.86Z"/>
          <path class="cls-1" d="M2675,940.88h0s-44.32,0-44.32,0c-16.32,0-29.54-13.23-29.54-29.54v-44.32h0c40.79,0,73.86,33.07,73.86,73.86Z"/>
        </g>
        <g>
          <path class="cls-1" d="M2753.86,862.1h0s-44.32,0-44.32,0c-16.32,0-29.54-13.23-29.54-29.54v-44.32h0c40.79,0,73.86,33.07,73.86,73.86Z"/>
          <path class="cls-1" d="M2832.65,940.88h0s-44.32,0-44.32,0c-16.32,0-29.54-13.23-29.54-29.54v-44.32h0c40.79,0,73.86,33.07,73.86,73.86Z"/>
        </g>
        <g>
          <path class="cls-1" d="M2911.51,862.1h0s-44.32,0-44.32,0c-16.32,0-29.54-13.23-29.54-29.54v-44.32h0c40.79,0,73.86,33.07,73.86,73.86Z"/>
          <path class="cls-1" d="M2990.29,940.88h0s-44.32,0-44.32,0c-16.32,0-29.54-13.23-29.54-29.54v-44.32h0c40.79,0,73.86,33.07,73.86,73.86Z"/>
        </g>
        <g>
          <path class="cls-1" d="M3069.16,862.1h0s-44.32,0-44.32,0c-16.32,0-29.54-13.23-29.54-29.54v-44.32h0c40.79,0,73.86,33.07,73.86,73.86Z"/>
          <path class="cls-1" d="M3147.94,940.88h0s-44.32,0-44.32,0c-16.32,0-29.54-13.23-29.54-29.54v-44.32h0c40.79,0,73.86,33.07,73.86,73.86Z"/>
        </g>
        <g>
          <path class="cls-1" d="M3226.8,862.1h0s-44.32,0-44.32,0c-16.32,0-29.54-13.23-29.54-29.54v-44.32h0c40.79,0,73.86,33.07,73.86,73.86Z"/>
          <path class="cls-1" d="M3305.59,940.88h0s-44.32,0-44.32,0c-16.32,0-29.54-13.23-29.54-29.54v-44.32h0c40.79,0,73.86,33.07,73.86,73.86Z"/>
        </g>
        <g>
          <path class="cls-1" d="M3384.45,862.1h0s-44.32,0-44.32,0c-16.32,0-29.54-13.23-29.54-29.54v-44.32h0c40.79,0,73.86,33.07,73.86,73.86Z"/>
          <path class="cls-1" d="M3463.24,940.88h0s-44.32,0-44.32,0c-16.32,0-29.54-13.23-29.54-29.54v-44.32h0c40.79,0,73.86,33.07,73.86,73.86Z"/>
        </g>
        <g>
          <path class="cls-1" d="M3542.1,862.1h0s-44.32,0-44.32,0c-16.32,0-29.54-13.23-29.54-29.54v-44.32h0c40.79,0,73.86,33.07,73.86,73.86Z"/>
          <path class="cls-1" d="M3620.88,940.88h0s-44.32,0-44.32,0c-16.32,0-29.54-13.23-29.54-29.54v-44.32h0c40.79,0,73.86,33.07,73.86,73.86Z"/>
        </g>
        <g>
          <path class="cls-1" d="M3699.74,862.1h0s-44.32,0-44.32,0c-16.32,0-29.54-13.23-29.54-29.54v-44.32h0c40.79,0,73.86,33.07,73.86,73.86Z"/>
          <path class="cls-1" d="M3778.53,940.88h0s-44.32,0-44.32,0c-16.32,0-29.54-13.23-29.54-29.54v-44.32h0c40.79,0,73.86,33.07,73.86,73.86Z"/>
        </g>
        <g>
          <path class="cls-1" d="M3857.39,862.1h0s-44.32,0-44.32,0c-16.32,0-29.54-13.23-29.54-29.54v-44.32h0c40.79,0,73.86,33.07,73.86,73.86Z"/>
          <path class="cls-1" d="M3936.18,940.88h0s-44.32,0-44.32,0c-16.32,0-29.54-13.23-29.54-29.54v-44.32h0c40.79,0,73.86,33.07,73.86,73.86Z"/>
        </g>
        <g>
          <path class="cls-1" d="M73.86,1019.74h0s-44.32,0-44.32,0C13.23,1019.74,0,1006.52,0,990.2v-44.32H0c40.79,0,73.86,33.07,73.86,73.86Z"/>
          <path class="cls-1" d="M152.65,1098.53h0s-44.32,0-44.32,0c-16.32,0-29.54-13.23-29.54-29.54v-44.32h0c40.79,0,73.86,33.07,73.86,73.86Z"/>
        </g>
        <g>
          <path class="cls-1" d="M231.51,1019.74h0s-44.32,0-44.32,0c-16.32,0-29.54-13.23-29.54-29.54v-44.32h0c40.79,0,73.86,33.07,73.86,73.86Z"/>
          <path class="cls-1" d="M310.29,1098.53h0s-44.32,0-44.32,0c-16.32,0-29.54-13.23-29.54-29.54v-44.32h0c40.79,0,73.86,33.07,73.86,73.86Z"/>
        </g>
        <g>
          <path class="cls-1" d="M389.16,1019.74h0s-44.32,0-44.32,0c-16.32,0-29.54-13.23-29.54-29.54v-44.32h0c40.79,0,73.86,33.07,73.86,73.86Z"/>
          <path class="cls-1" d="M467.94,1098.53h0s-44.32,0-44.32,0c-16.32,0-29.54-13.23-29.54-29.54v-44.32h0c40.79,0,73.86,33.07,73.86,73.86Z"/>
        </g>
        <g>
          <path class="cls-1" d="M546.8,1019.74h0s-44.32,0-44.32,0c-16.32,0-29.54-13.23-29.54-29.54v-44.32h0c40.79,0,73.86,33.07,73.86,73.86Z"/>
          <path class="cls-1" d="M625.59,1098.53h0s-44.32,0-44.32,0c-16.32,0-29.54-13.23-29.54-29.54v-44.32h0c40.79,0,73.86,33.07,73.86,73.86Z"/>
        </g>
        <g>
          <path class="cls-1" d="M704.45,1019.74h0s-44.32,0-44.32,0c-16.32,0-29.54-13.23-29.54-29.54v-44.32h0c40.79,0,73.86,33.07,73.86,73.86Z"/>
          <path class="cls-1" d="M783.24,1098.53h0s-44.32,0-44.32,0c-16.32,0-29.54-13.23-29.54-29.54v-44.32h0c40.79,0,73.86,33.07,73.86,73.86Z"/>
        </g>
        <g>
          <path class="cls-1" d="M862.1,1019.74h0s-44.32,0-44.32,0c-16.32,0-29.54-13.23-29.54-29.54v-44.32h0c40.79,0,73.86,33.07,73.86,73.86Z"/>
          <path class="cls-1" d="M940.88,1098.53h0s-44.32,0-44.32,0c-16.32,0-29.54-13.23-29.54-29.54v-44.32h0c40.79,0,73.86,33.07,73.86,73.86Z"/>
        </g>
        <g>
          <path class="cls-1" d="M1019.74,1019.74h0s-44.32,0-44.32,0c-16.32,0-29.54-13.23-29.54-29.54v-44.32h0c40.79,0,73.86,33.07,73.86,73.86Z"/>
          <path class="cls-1" d="M1098.53,1098.53h0s-44.32,0-44.32,0c-16.32,0-29.54-13.23-29.54-29.54v-44.32h0c40.79,0,73.86,33.07,73.86,73.86Z"/>
        </g>
        <g>
          <path class="cls-1" d="M1177.39,1019.74h0s-44.32,0-44.32,0c-16.32,0-29.54-13.23-29.54-29.54v-44.32h0c40.79,0,73.86,33.07,73.86,73.86Z"/>
          <path class="cls-1" d="M1256.18,1098.53h0s-44.32,0-44.32,0c-16.32,0-29.54-13.23-29.54-29.54v-44.32h0c40.79,0,73.86,33.07,73.86,73.86Z"/>
        </g>
        <g>
          <path class="cls-1" d="M1335.04,1019.74h0s-44.32,0-44.32,0c-16.32,0-29.54-13.23-29.54-29.54v-44.32h0c40.79,0,73.86,33.07,73.86,73.86Z"/>
          <path class="cls-1" d="M1413.82,1098.53h0s-44.32,0-44.32,0c-16.32,0-29.54-13.23-29.54-29.54v-44.32h0c40.79,0,73.86,33.07,73.86,73.86Z"/>
        </g>
        <g>
          <path class="cls-1" d="M1492.68,1019.74h0s-44.32,0-44.32,0c-16.32,0-29.54-13.23-29.54-29.54v-44.32h0c40.79,0,73.86,33.07,73.86,73.86Z"/>
          <path class="cls-1" d="M1571.47,1098.53h0s-44.32,0-44.32,0c-16.32,0-29.54-13.23-29.54-29.54v-44.32h0c40.79,0,73.86,33.07,73.86,73.86Z"/>
        </g>
        <g>
          <path class="cls-1" d="M1650.33,1019.74h0s-44.32,0-44.32,0c-16.32,0-29.54-13.23-29.54-29.54v-44.32h0c40.79,0,73.86,33.07,73.86,73.86Z"/>
          <path class="cls-1" d="M1729.12,1098.53h0s-44.32,0-44.32,0c-16.32,0-29.54-13.23-29.54-29.54v-44.32h0c40.79,0,73.86,33.07,73.86,73.86Z"/>
        </g>
        <g>
          <path class="cls-1" d="M1807.98,1019.74h0s-44.32,0-44.32,0c-16.32,0-29.54-13.23-29.54-29.54v-44.32h0c40.79,0,73.86,33.07,73.86,73.86Z"/>
          <path class="cls-1" d="M1886.76,1098.53h0s-44.32,0-44.32,0c-16.32,0-29.54-13.23-29.54-29.54v-44.32h0c40.79,0,73.86,33.07,73.86,73.86Z"/>
        </g>
        <g>
          <path class="cls-1" d="M1965.63,1019.74h0s-44.32,0-44.32,0c-16.32,0-29.54-13.23-29.54-29.54v-44.32h0c40.79,0,73.86,33.07,73.86,73.86Z"/>
          <path class="cls-1" d="M2044.41,1098.53h0s-44.32,0-44.32,0c-16.32,0-29.54-13.23-29.54-29.54v-44.32h0c40.79,0,73.86,33.07,73.86,73.86Z"/>
        </g>
        <g>
          <path class="cls-1" d="M2123.27,1019.74h0s-44.32,0-44.32,0c-16.32,0-29.54-13.23-29.54-29.54v-44.32h0c40.79,0,73.86,33.07,73.86,73.86Z"/>
          <path class="cls-1" d="M2202.06,1098.53h0s-44.32,0-44.32,0c-16.32,0-29.54-13.23-29.54-29.54v-44.32h0c40.79,0,73.86,33.07,73.86,73.86Z"/>
        </g>
        <g>
          <path class="cls-1" d="M2280.92,1019.74h0s-44.32,0-44.32,0c-16.32,0-29.54-13.23-29.54-29.54v-44.32h0c40.79,0,73.86,33.07,73.86,73.86Z"/>
          <path class="cls-1" d="M2359.71,1098.53h0s-44.32,0-44.32,0c-16.32,0-29.54-13.23-29.54-29.54v-44.32h0c40.79,0,73.86,33.07,73.86,73.86Z"/>
        </g>
        <g>
          <path class="cls-1" d="M2438.57,1019.74h0s-44.32,0-44.32,0c-16.32,0-29.54-13.23-29.54-29.54v-44.32h0c40.79,0,73.86,33.07,73.86,73.86Z"/>
          <path class="cls-1" d="M2517.35,1098.53h0s-44.32,0-44.32,0c-16.32,0-29.54-13.23-29.54-29.54v-44.32h0c40.79,0,73.86,33.07,73.86,73.86Z"/>
        </g>
        <g>
          <path class="cls-1" d="M2596.21,1019.74h0s-44.32,0-44.32,0c-16.32,0-29.54-13.23-29.54-29.54v-44.32h0c40.79,0,73.86,33.07,73.86,73.86Z"/>
          <path class="cls-1" d="M2675,1098.53h0s-44.32,0-44.32,0c-16.32,0-29.54-13.23-29.54-29.54v-44.32h0c40.79,0,73.86,33.07,73.86,73.86Z"/>
        </g>
        <g>
          <path class="cls-1" d="M2753.86,1019.74h0s-44.32,0-44.32,0c-16.32,0-29.54-13.23-29.54-29.54v-44.32h0c40.79,0,73.86,33.07,73.86,73.86Z"/>
          <path class="cls-1" d="M2832.65,1098.53h0s-44.32,0-44.32,0c-16.32,0-29.54-13.23-29.54-29.54v-44.32h0c40.79,0,73.86,33.07,73.86,73.86Z"/>
        </g>
        <g>
          <path class="cls-1" d="M2911.51,1019.74h0s-44.32,0-44.32,0c-16.32,0-29.54-13.23-29.54-29.54v-44.32h0c40.79,0,73.86,33.07,73.86,73.86Z"/>
          <path class="cls-1" d="M2990.29,1098.53h0s-44.32,0-44.32,0c-16.32,0-29.54-13.23-29.54-29.54v-44.32h0c40.79,0,73.86,33.07,73.86,73.86Z"/>
        </g>
        <g>
          <path class="cls-1" d="M3069.16,1019.74h0s-44.32,0-44.32,0c-16.32,0-29.54-13.23-29.54-29.54v-44.32h0c40.79,0,73.86,33.07,73.86,73.86Z"/>
          <path class="cls-1" d="M3147.94,1098.53h0s-44.32,0-44.32,0c-16.32,0-29.54-13.23-29.54-29.54v-44.32h0c40.79,0,73.86,33.07,73.86,73.86Z"/>
        </g>
        <g>
          <path class="cls-1" d="M3226.8,1019.74h0s-44.32,0-44.32,0c-16.32,0-29.54-13.23-29.54-29.54v-44.32h0c40.79,0,73.86,33.07,73.86,73.86Z"/>
          <path class="cls-1" d="M3305.59,1098.53h0s-44.32,0-44.32,0c-16.32,0-29.54-13.23-29.54-29.54v-44.32h0c40.79,0,73.86,33.07,73.86,73.86Z"/>
        </g>
        <g>
          <path class="cls-1" d="M3384.45,1019.74h0s-44.32,0-44.32,0c-16.32,0-29.54-13.23-29.54-29.54v-44.32h0c40.79,0,73.86,33.07,73.86,73.86Z"/>
          <path class="cls-1" d="M3463.24,1098.53h0s-44.32,0-44.32,0c-16.32,0-29.54-13.23-29.54-29.54v-44.32h0c40.79,0,73.86,33.07,73.86,73.86Z"/>
        </g>
        <g>
          <path class="cls-1" d="M3542.1,1019.74h0s-44.32,0-44.32,0c-16.32,0-29.54-13.23-29.54-29.54v-44.32h0c40.79,0,73.86,33.07,73.86,73.86Z"/>
          <path class="cls-1" d="M3620.88,1098.53h0s-44.32,0-44.32,0c-16.32,0-29.54-13.23-29.54-29.54v-44.32h0c40.79,0,73.86,33.07,73.86,73.86Z"/>
        </g>
        <g>
          <path class="cls-1" d="M3699.74,1019.74h0s-44.32,0-44.32,0c-16.32,0-29.54-13.23-29.54-29.54v-44.32h0c40.79,0,73.86,33.07,73.86,73.86Z"/>
          <path class="cls-1" d="M3778.53,1098.53h0s-44.32,0-44.32,0c-16.32,0-29.54-13.23-29.54-29.54v-44.32h0c40.79,0,73.86,33.07,73.86,73.86Z"/>
        </g>
        <g>
          <path class="cls-1" d="M3857.39,1019.74h0s-44.32,0-44.32,0c-16.32,0-29.54-13.23-29.54-29.54v-44.32h0c40.79,0,73.86,33.07,73.86,73.86Z"/>
          <path class="cls-1" d="M3936.18,1098.53h0s-44.32,0-44.32,0c-16.32,0-29.54-13.23-29.54-29.54v-44.32h0c40.79,0,73.86,33.07,73.86,73.86Z"/>
        </g>
        <g>
          <path class="cls-1" d="M73.86,1177.39h0s-44.32,0-44.32,0C13.23,1177.39,0,1164.16,0,1147.85v-44.32H0c40.79,0,73.86,33.07,73.86,73.86Z"/>
          <path class="cls-1" d="M152.65,1256.18h0s-44.32,0-44.32,0c-16.32,0-29.54-13.23-29.54-29.54v-44.32h0c40.79,0,73.86,33.07,73.86,73.86Z"/>
        </g>
        <g>
          <path class="cls-1" d="M231.51,1177.39h0s-44.32,0-44.32,0c-16.32,0-29.54-13.23-29.54-29.54v-44.32h0c40.79,0,73.86,33.07,73.86,73.86Z"/>
          <path class="cls-1" d="M310.29,1256.18h0s-44.32,0-44.32,0c-16.32,0-29.54-13.23-29.54-29.54v-44.32h0c40.79,0,73.86,33.07,73.86,73.86Z"/>
        </g>
        <g>
          <path class="cls-1" d="M389.16,1177.39h0s-44.32,0-44.32,0c-16.32,0-29.54-13.23-29.54-29.54v-44.32h0c40.79,0,73.86,33.07,73.86,73.86Z"/>
          <path class="cls-1" d="M467.94,1256.18h0s-44.32,0-44.32,0c-16.32,0-29.54-13.23-29.54-29.54v-44.32h0c40.79,0,73.86,33.07,73.86,73.86Z"/>
        </g>
        <g>
          <path class="cls-1" d="M546.8,1177.39h0s-44.32,0-44.32,0c-16.32,0-29.54-13.23-29.54-29.54v-44.32h0c40.79,0,73.86,33.07,73.86,73.86Z"/>
          <path class="cls-1" d="M625.59,1256.18h0s-44.32,0-44.32,0c-16.32,0-29.54-13.23-29.54-29.54v-44.32h0c40.79,0,73.86,33.07,73.86,73.86Z"/>
        </g>
        <g>
          <path class="cls-1" d="M704.45,1177.39h0s-44.32,0-44.32,0c-16.32,0-29.54-13.23-29.54-29.54v-44.32h0c40.79,0,73.86,33.07,73.86,73.86Z"/>
          <path class="cls-1" d="M783.24,1256.18h0s-44.32,0-44.32,0c-16.32,0-29.54-13.23-29.54-29.54v-44.32h0c40.79,0,73.86,33.07,73.86,73.86Z"/>
        </g>
        <g>
          <path class="cls-1" d="M862.1,1177.39h0s-44.32,0-44.32,0c-16.32,0-29.54-13.23-29.54-29.54v-44.32h0c40.79,0,73.86,33.07,73.86,73.86Z"/>
          <path class="cls-1" d="M940.88,1256.18h0s-44.32,0-44.32,0c-16.32,0-29.54-13.23-29.54-29.54v-44.32h0c40.79,0,73.86,33.07,73.86,73.86Z"/>
        </g>
        <g>
          <path class="cls-1" d="M1019.74,1177.39h0s-44.32,0-44.32,0c-16.32,0-29.54-13.23-29.54-29.54v-44.32h0c40.79,0,73.86,33.07,73.86,73.86Z"/>
          <path class="cls-1" d="M1098.53,1256.18h0s-44.32,0-44.32,0c-16.32,0-29.54-13.23-29.54-29.54v-44.32h0c40.79,0,73.86,33.07,73.86,73.86Z"/>
        </g>
        <g>
          <path class="cls-1" d="M1177.39,1177.39h0s-44.32,0-44.32,0c-16.32,0-29.54-13.23-29.54-29.54v-44.32h0c40.79,0,73.86,33.07,73.86,73.86Z"/>
          <path class="cls-1" d="M1256.18,1256.18h0s-44.32,0-44.32,0c-16.32,0-29.54-13.23-29.54-29.54v-44.32h0c40.79,0,73.86,33.07,73.86,73.86Z"/>
        </g>
        <g>
          <path class="cls-1" d="M1335.04,1177.39h0s-44.32,0-44.32,0c-16.32,0-29.54-13.23-29.54-29.54v-44.32h0c40.79,0,73.86,33.07,73.86,73.86Z"/>
          <path class="cls-1" d="M1413.82,1256.18h0s-44.32,0-44.32,0c-16.32,0-29.54-13.23-29.54-29.54v-44.32h0c40.79,0,73.86,33.07,73.86,73.86Z"/>
        </g>
        <g>
          <path class="cls-1" d="M1492.68,1177.39h0s-44.32,0-44.32,0c-16.32,0-29.54-13.23-29.54-29.54v-44.32h0c40.79,0,73.86,33.07,73.86,73.86Z"/>
          <path class="cls-1" d="M1571.47,1256.18h0s-44.32,0-44.32,0c-16.32,0-29.54-13.23-29.54-29.54v-44.32h0c40.79,0,73.86,33.07,73.86,73.86Z"/>
        </g>
        <g>
          <path class="cls-1" d="M1650.33,1177.39h0s-44.32,0-44.32,0c-16.32,0-29.54-13.23-29.54-29.54v-44.32h0c40.79,0,73.86,33.07,73.86,73.86Z"/>
          <path class="cls-1" d="M1729.12,1256.18h0s-44.32,0-44.32,0c-16.32,0-29.54-13.23-29.54-29.54v-44.32h0c40.79,0,73.86,33.07,73.86,73.86Z"/>
        </g>
        <g>
          <path class="cls-1" d="M1807.98,1177.39h0s-44.32,0-44.32,0c-16.32,0-29.54-13.23-29.54-29.54v-44.32h0c40.79,0,73.86,33.07,73.86,73.86Z"/>
          <path class="cls-1" d="M1886.76,1256.18h0s-44.32,0-44.32,0c-16.32,0-29.54-13.23-29.54-29.54v-44.32h0c40.79,0,73.86,33.07,73.86,73.86Z"/>
        </g>
        <g>
          <path class="cls-1" d="M1965.63,1177.39h0s-44.32,0-44.32,0c-16.32,0-29.54-13.23-29.54-29.54v-44.32h0c40.79,0,73.86,33.07,73.86,73.86Z"/>
          <path class="cls-1" d="M2044.41,1256.18h0s-44.32,0-44.32,0c-16.32,0-29.54-13.23-29.54-29.54v-44.32h0c40.79,0,73.86,33.07,73.86,73.86Z"/>
        </g>
        <g>
          <path class="cls-1" d="M2123.27,1177.39h0s-44.32,0-44.32,0c-16.32,0-29.54-13.23-29.54-29.54v-44.32h0c40.79,0,73.86,33.07,73.86,73.86Z"/>
          <path class="cls-1" d="M2202.06,1256.18h0s-44.32,0-44.32,0c-16.32,0-29.54-13.23-29.54-29.54v-44.32h0c40.79,0,73.86,33.07,73.86,73.86Z"/>
        </g>
        <g>
          <path class="cls-1" d="M2280.92,1177.39h0s-44.32,0-44.32,0c-16.32,0-29.54-13.23-29.54-29.54v-44.32h0c40.79,0,73.86,33.07,73.86,73.86Z"/>
          <path class="cls-1" d="M2359.71,1256.18h0s-44.32,0-44.32,0c-16.32,0-29.54-13.23-29.54-29.54v-44.32h0c40.79,0,73.86,33.07,73.86,73.86Z"/>
        </g>
        <g>
          <path class="cls-1" d="M2438.57,1177.39h0s-44.32,0-44.32,0c-16.32,0-29.54-13.23-29.54-29.54v-44.32h0c40.79,0,73.86,33.07,73.86,73.86Z"/>
          <path class="cls-1" d="M2517.35,1256.18h0s-44.32,0-44.32,0c-16.32,0-29.54-13.23-29.54-29.54v-44.32h0c40.79,0,73.86,33.07,73.86,73.86Z"/>
        </g>
        <g>
          <path class="cls-1" d="M2596.21,1177.39h0s-44.32,0-44.32,0c-16.32,0-29.54-13.23-29.54-29.54v-44.32h0c40.79,0,73.86,33.07,73.86,73.86Z"/>
          <path class="cls-1" d="M2675,1256.18h0s-44.32,0-44.32,0c-16.32,0-29.54-13.23-29.54-29.54v-44.32h0c40.79,0,73.86,33.07,73.86,73.86Z"/>
        </g>
        <g>
          <path class="cls-1" d="M2753.86,1177.39h0s-44.32,0-44.32,0c-16.32,0-29.54-13.23-29.54-29.54v-44.32h0c40.79,0,73.86,33.07,73.86,73.86Z"/>
          <path class="cls-1" d="M2832.65,1256.18h0s-44.32,0-44.32,0c-16.32,0-29.54-13.23-29.54-29.54v-44.32h0c40.79,0,73.86,33.07,73.86,73.86Z"/>
        </g>
        <g>
          <path class="cls-1" d="M2911.51,1177.39h0s-44.32,0-44.32,0c-16.32,0-29.54-13.23-29.54-29.54v-44.32h0c40.79,0,73.86,33.07,73.86,73.86Z"/>
          <path class="cls-1" d="M2990.29,1256.18h0s-44.32,0-44.32,0c-16.32,0-29.54-13.23-29.54-29.54v-44.32h0c40.79,0,73.86,33.07,73.86,73.86Z"/>
        </g>
        <g>
          <path class="cls-1" d="M3069.16,1177.39h0s-44.32,0-44.32,0c-16.32,0-29.54-13.23-29.54-29.54v-44.32h0c40.79,0,73.86,33.07,73.86,73.86Z"/>
          <path class="cls-1" d="M3147.94,1256.18h0s-44.32,0-44.32,0c-16.32,0-29.54-13.23-29.54-29.54v-44.32h0c40.79,0,73.86,33.07,73.86,73.86Z"/>
        </g>
        <g>
          <path class="cls-1" d="M3226.8,1177.39h0s-44.32,0-44.32,0c-16.32,0-29.54-13.23-29.54-29.54v-44.32h0c40.79,0,73.86,33.07,73.86,73.86Z"/>
          <path class="cls-1" d="M3305.59,1256.18h0s-44.32,0-44.32,0c-16.32,0-29.54-13.23-29.54-29.54v-44.32h0c40.79,0,73.86,33.07,73.86,73.86Z"/>
        </g>
        <g>
          <path class="cls-1" d="M3384.45,1177.39h0s-44.32,0-44.32,0c-16.32,0-29.54-13.23-29.54-29.54v-44.32h0c40.79,0,73.86,33.07,73.86,73.86Z"/>
          <path class="cls-1" d="M3463.24,1256.18h0s-44.32,0-44.32,0c-16.32,0-29.54-13.23-29.54-29.54v-44.32h0c40.79,0,73.86,33.07,73.86,73.86Z"/>
        </g>
        <g>
          <path class="cls-1" d="M3542.1,1177.39h0s-44.32,0-44.32,0c-16.32,0-29.54-13.23-29.54-29.54v-44.32h0c40.79,0,73.86,33.07,73.86,73.86Z"/>
          <path class="cls-1" d="M3620.88,1256.18h0s-44.32,0-44.32,0c-16.32,0-29.54-13.23-29.54-29.54v-44.32h0c40.79,0,73.86,33.07,73.86,73.86Z"/>
        </g>
        <g>
          <path class="cls-1" d="M3699.74,1177.39h0s-44.32,0-44.32,0c-16.32,0-29.54-13.23-29.54-29.54v-44.32h0c40.79,0,73.86,33.07,73.86,73.86Z"/>
          <path class="cls-1" d="M3778.53,1256.18h0s-44.32,0-44.32,0c-16.32,0-29.54-13.23-29.54-29.54v-44.32h0c40.79,0,73.86,33.07,73.86,73.86Z"/>
        </g>
        <g>
          <path class="cls-1" d="M3857.39,1177.39h0s-44.32,0-44.32,0c-16.32,0-29.54-13.23-29.54-29.54v-44.32h0c40.79,0,73.86,33.07,73.86,73.86Z"/>
          <path class="cls-1" d="M3936.18,1256.18h0s-44.32,0-44.32,0c-16.32,0-29.54-13.23-29.54-29.54v-44.32h0c40.79,0,73.86,33.07,73.86,73.86Z"/>
        </g>
        <g>
          <path class="cls-1" d="M73.86,1335.04h0s-44.32,0-44.32,0C13.23,1335.04,0,1321.81,0,1305.49v-44.32H0c40.79,0,73.86,33.07,73.86,73.86Z"/>
          <path class="cls-1" d="M152.65,1413.82h0s-44.32,0-44.32,0c-16.32,0-29.54-13.23-29.54-29.54v-44.32h0c40.79,0,73.86,33.07,73.86,73.86Z"/>
        </g>
        <g>
          <path class="cls-1" d="M231.51,1335.04h0s-44.32,0-44.32,0c-16.32,0-29.54-13.23-29.54-29.54v-44.32h0c40.79,0,73.86,33.07,73.86,73.86Z"/>
          <path class="cls-1" d="M310.29,1413.82h0s-44.32,0-44.32,0c-16.32,0-29.54-13.23-29.54-29.54v-44.32h0c40.79,0,73.86,33.07,73.86,73.86Z"/>
        </g>
        <g>
          <path class="cls-1" d="M389.16,1335.04h0s-44.32,0-44.32,0c-16.32,0-29.54-13.23-29.54-29.54v-44.32h0c40.79,0,73.86,33.07,73.86,73.86Z"/>
          <path class="cls-1" d="M467.94,1413.82h0s-44.32,0-44.32,0c-16.32,0-29.54-13.23-29.54-29.54v-44.32h0c40.79,0,73.86,33.07,73.86,73.86Z"/>
        </g>
        <g>
          <path class="cls-1" d="M546.8,1335.04h0s-44.32,0-44.32,0c-16.32,0-29.54-13.23-29.54-29.54v-44.32h0c40.79,0,73.86,33.07,73.86,73.86Z"/>
          <path class="cls-1" d="M625.59,1413.82h0s-44.32,0-44.32,0c-16.32,0-29.54-13.23-29.54-29.54v-44.32h0c40.79,0,73.86,33.07,73.86,73.86Z"/>
        </g>
        <g>
          <path class="cls-1" d="M704.45,1335.04h0s-44.32,0-44.32,0c-16.32,0-29.54-13.23-29.54-29.54v-44.32h0c40.79,0,73.86,33.07,73.86,73.86Z"/>
          <path class="cls-1" d="M783.24,1413.82h0s-44.32,0-44.32,0c-16.32,0-29.54-13.23-29.54-29.54v-44.32h0c40.79,0,73.86,33.07,73.86,73.86Z"/>
        </g>
        <g>
          <path class="cls-1" d="M862.1,1335.04h0s-44.32,0-44.32,0c-16.32,0-29.54-13.23-29.54-29.54v-44.32h0c40.79,0,73.86,33.07,73.86,73.86Z"/>
          <path class="cls-1" d="M940.88,1413.82h0s-44.32,0-44.32,0c-16.32,0-29.54-13.23-29.54-29.54v-44.32h0c40.79,0,73.86,33.07,73.86,73.86Z"/>
        </g>
        <g>
          <path class="cls-1" d="M1019.74,1335.04h0s-44.32,0-44.32,0c-16.32,0-29.54-13.23-29.54-29.54v-44.32h0c40.79,0,73.86,33.07,73.86,73.86Z"/>
          <path class="cls-1" d="M1098.53,1413.82h0s-44.32,0-44.32,0c-16.32,0-29.54-13.23-29.54-29.54v-44.32h0c40.79,0,73.86,33.07,73.86,73.86Z"/>
        </g>
        <g>
          <path class="cls-1" d="M1177.39,1335.04h0s-44.32,0-44.32,0c-16.32,0-29.54-13.23-29.54-29.54v-44.32h0c40.79,0,73.86,33.07,73.86,73.86Z"/>
          <path class="cls-1" d="M1256.18,1413.82h0s-44.32,0-44.32,0c-16.32,0-29.54-13.23-29.54-29.54v-44.32h0c40.79,0,73.86,33.07,73.86,73.86Z"/>
        </g>
        <g>
          <path class="cls-1" d="M1335.04,1335.04h0s-44.32,0-44.32,0c-16.32,0-29.54-13.23-29.54-29.54v-44.32h0c40.79,0,73.86,33.07,73.86,73.86Z"/>
          <path class="cls-1" d="M1413.82,1413.82h0s-44.32,0-44.32,0c-16.32,0-29.54-13.23-29.54-29.54v-44.32h0c40.79,0,73.86,33.07,73.86,73.86Z"/>
        </g>
        <g>
          <path class="cls-1" d="M1492.68,1335.04h0s-44.32,0-44.32,0c-16.32,0-29.54-13.23-29.54-29.54v-44.32h0c40.79,0,73.86,33.07,73.86,73.86Z"/>
          <path class="cls-1" d="M1571.47,1413.82h0s-44.32,0-44.32,0c-16.32,0-29.54-13.23-29.54-29.54v-44.32h0c40.79,0,73.86,33.07,73.86,73.86Z"/>
        </g>
        <g>
          <path class="cls-1" d="M1650.33,1335.04h0s-44.32,0-44.32,0c-16.32,0-29.54-13.23-29.54-29.54v-44.32h0c40.79,0,73.86,33.07,73.86,73.86Z"/>
          <path class="cls-1" d="M1729.12,1413.82h0s-44.32,0-44.32,0c-16.32,0-29.54-13.23-29.54-29.54v-44.32h0c40.79,0,73.86,33.07,73.86,73.86Z"/>
        </g>
        <g>
          <path class="cls-1" d="M1807.98,1335.04h0s-44.32,0-44.32,0c-16.32,0-29.54-13.23-29.54-29.54v-44.32h0c40.79,0,73.86,33.07,73.86,73.86Z"/>
          <path class="cls-1" d="M1886.76,1413.82h0s-44.32,0-44.32,0c-16.32,0-29.54-13.23-29.54-29.54v-44.32h0c40.79,0,73.86,33.07,73.86,73.86Z"/>
        </g>
        <g>
          <path class="cls-1" d="M1965.63,1335.04h0s-44.32,0-44.32,0c-16.32,0-29.54-13.23-29.54-29.54v-44.32h0c40.79,0,73.86,33.07,73.86,73.86Z"/>
          <path class="cls-1" d="M2044.41,1413.82h0s-44.32,0-44.32,0c-16.32,0-29.54-13.23-29.54-29.54v-44.32h0c40.79,0,73.86,33.07,73.86,73.86Z"/>
        </g>
        <g>
          <path class="cls-1" d="M2123.27,1335.04h0s-44.32,0-44.32,0c-16.32,0-29.54-13.23-29.54-29.54v-44.32h0c40.79,0,73.86,33.07,73.86,73.86Z"/>
          <path class="cls-1" d="M2202.06,1413.82h0s-44.32,0-44.32,0c-16.32,0-29.54-13.23-29.54-29.54v-44.32h0c40.79,0,73.86,33.07,73.86,73.86Z"/>
        </g>
        <g>
          <path class="cls-1" d="M2280.92,1335.04h0s-44.32,0-44.32,0c-16.32,0-29.54-13.23-29.54-29.54v-44.32h0c40.79,0,73.86,33.07,73.86,73.86Z"/>
          <path class="cls-1" d="M2359.71,1413.82h0s-44.32,0-44.32,0c-16.32,0-29.54-13.23-29.54-29.54v-44.32h0c40.79,0,73.86,33.07,73.86,73.86Z"/>
        </g>
        <g>
          <path class="cls-1" d="M2438.57,1335.04h0s-44.32,0-44.32,0c-16.32,0-29.54-13.23-29.54-29.54v-44.32h0c40.79,0,73.86,33.07,73.86,73.86Z"/>
          <path class="cls-1" d="M2517.35,1413.82h0s-44.32,0-44.32,0c-16.32,0-29.54-13.23-29.54-29.54v-44.32h0c40.79,0,73.86,33.07,73.86,73.86Z"/>
        </g>
        <g>
          <path class="cls-1" d="M2596.21,1335.04h0s-44.32,0-44.32,0c-16.32,0-29.54-13.23-29.54-29.54v-44.32h0c40.79,0,73.86,33.07,73.86,73.86Z"/>
          <path class="cls-1" d="M2675,1413.82h0s-44.32,0-44.32,0c-16.32,0-29.54-13.23-29.54-29.54v-44.32h0c40.79,0,73.86,33.07,73.86,73.86Z"/>
        </g>
        <g>
          <path class="cls-1" d="M2753.86,1335.04h0s-44.32,0-44.32,0c-16.32,0-29.54-13.23-29.54-29.54v-44.32h0c40.79,0,73.86,33.07,73.86,73.86Z"/>
          <path class="cls-1" d="M2832.65,1413.82h0s-44.32,0-44.32,0c-16.32,0-29.54-13.23-29.54-29.54v-44.32h0c40.79,0,73.86,33.07,73.86,73.86Z"/>
        </g>
        <g>
          <path class="cls-1" d="M2911.51,1335.04h0s-44.32,0-44.32,0c-16.32,0-29.54-13.23-29.54-29.54v-44.32h0c40.79,0,73.86,33.07,73.86,73.86Z"/>
          <path class="cls-1" d="M2990.29,1413.82h0s-44.32,0-44.32,0c-16.32,0-29.54-13.23-29.54-29.54v-44.32h0c40.79,0,73.86,33.07,73.86,73.86Z"/>
        </g>
        <g>
          <path class="cls-1" d="M3069.16,1335.04h0s-44.32,0-44.32,0c-16.32,0-29.54-13.23-29.54-29.54v-44.32h0c40.79,0,73.86,33.07,73.86,73.86Z"/>
          <path class="cls-1" d="M3147.94,1413.82h0s-44.32,0-44.32,0c-16.32,0-29.54-13.23-29.54-29.54v-44.32h0c40.79,0,73.86,33.07,73.86,73.86Z"/>
        </g>
        <g>
          <path class="cls-1" d="M3226.8,1335.04h0s-44.32,0-44.32,0c-16.32,0-29.54-13.23-29.54-29.54v-44.32h0c40.79,0,73.86,33.07,73.86,73.86Z"/>
          <path class="cls-1" d="M3305.59,1413.82h0s-44.32,0-44.32,0c-16.32,0-29.54-13.23-29.54-29.54v-44.32h0c40.79,0,73.86,33.07,73.86,73.86Z"/>
        </g>
        <g>
          <path class="cls-1" d="M3384.45,1335.04h0s-44.32,0-44.32,0c-16.32,0-29.54-13.23-29.54-29.54v-44.32h0c40.79,0,73.86,33.07,73.86,73.86Z"/>
          <path class="cls-1" d="M3463.24,1413.82h0s-44.32,0-44.32,0c-16.32,0-29.54-13.23-29.54-29.54v-44.32h0c40.79,0,73.86,33.07,73.86,73.86Z"/>
        </g>
        <g>
          <path class="cls-1" d="M3542.1,1335.04h0s-44.32,0-44.32,0c-16.32,0-29.54-13.23-29.54-29.54v-44.32h0c40.79,0,73.86,33.07,73.86,73.86Z"/>
          <path class="cls-1" d="M3620.88,1413.82h0s-44.32,0-44.32,0c-16.32,0-29.54-13.23-29.54-29.54v-44.32h0c40.79,0,73.86,33.07,73.86,73.86Z"/>
        </g>
        <g>
          <path class="cls-1" d="M3699.74,1335.04h0s-44.32,0-44.32,0c-16.32,0-29.54-13.23-29.54-29.54v-44.32h0c40.79,0,73.86,33.07,73.86,73.86Z"/>
          <path class="cls-1" d="M3778.53,1413.82h0s-44.32,0-44.32,0c-16.32,0-29.54-13.23-29.54-29.54v-44.32h0c40.79,0,73.86,33.07,73.86,73.86Z"/>
        </g>
        <g>
          <path class="cls-1" d="M3857.39,1335.04h0s-44.32,0-44.32,0c-16.32,0-29.54-13.23-29.54-29.54v-44.32h0c40.79,0,73.86,33.07,73.86,73.86Z"/>
          <path class="cls-1" d="M3936.18,1413.82h0s-44.32,0-44.32,0c-16.32,0-29.54-13.23-29.54-29.54v-44.32h0c40.79,0,73.86,33.07,73.86,73.86Z"/>
        </g>
        <g>
          <path class="cls-1" d="M73.86,1492.68h0s-44.32,0-44.32,0C13.23,1492.68,0,1479.46,0,1463.14v-44.32H0c40.79,0,73.86,33.07,73.86,73.86Z"/>
          <path class="cls-1" d="M152.65,1571.47h0s-44.32,0-44.32,0c-16.32,0-29.54-13.23-29.54-29.54v-44.32h0c40.79,0,73.86,33.07,73.86,73.86Z"/>
        </g>
        <g>
          <path class="cls-1" d="M231.51,1492.68h0s-44.32,0-44.32,0c-16.32,0-29.54-13.23-29.54-29.54v-44.32h0c40.79,0,73.86,33.07,73.86,73.86Z"/>
          <path class="cls-1" d="M310.29,1571.47h0s-44.32,0-44.32,0c-16.32,0-29.54-13.23-29.54-29.54v-44.32h0c40.79,0,73.86,33.07,73.86,73.86Z"/>
        </g>
        <g>
          <path class="cls-1" d="M389.16,1492.68h0s-44.32,0-44.32,0c-16.32,0-29.54-13.23-29.54-29.54v-44.32h0c40.79,0,73.86,33.07,73.86,73.86Z"/>
          <path class="cls-1" d="M467.94,1571.47h0s-44.32,0-44.32,0c-16.32,0-29.54-13.23-29.54-29.54v-44.32h0c40.79,0,73.86,33.07,73.86,73.86Z"/>
        </g>
        <g>
          <path class="cls-1" d="M546.8,1492.68h0s-44.32,0-44.32,0c-16.32,0-29.54-13.23-29.54-29.54v-44.32h0c40.79,0,73.86,33.07,73.86,73.86Z"/>
          <path class="cls-1" d="M625.59,1571.47h0s-44.32,0-44.32,0c-16.32,0-29.54-13.23-29.54-29.54v-44.32h0c40.79,0,73.86,33.07,73.86,73.86Z"/>
        </g>
        <g>
          <path class="cls-1" d="M704.45,1492.68h0s-44.32,0-44.32,0c-16.32,0-29.54-13.23-29.54-29.54v-44.32h0c40.79,0,73.86,33.07,73.86,73.86Z"/>
          <path class="cls-1" d="M783.24,1571.47h0s-44.32,0-44.32,0c-16.32,0-29.54-13.23-29.54-29.54v-44.32h0c40.79,0,73.86,33.07,73.86,73.86Z"/>
        </g>
        <g>
          <path class="cls-1" d="M862.1,1492.68h0s-44.32,0-44.32,0c-16.32,0-29.54-13.23-29.54-29.54v-44.32h0c40.79,0,73.86,33.07,73.86,73.86Z"/>
          <path class="cls-1" d="M940.88,1571.47h0s-44.32,0-44.32,0c-16.32,0-29.54-13.23-29.54-29.54v-44.32h0c40.79,0,73.86,33.07,73.86,73.86Z"/>
        </g>
        <g>
          <path class="cls-1" d="M1019.74,1492.68h0s-44.32,0-44.32,0c-16.32,0-29.54-13.23-29.54-29.54v-44.32h0c40.79,0,73.86,33.07,73.86,73.86Z"/>
          <path class="cls-1" d="M1098.53,1571.47h0s-44.32,0-44.32,0c-16.32,0-29.54-13.23-29.54-29.54v-44.32h0c40.79,0,73.86,33.07,73.86,73.86Z"/>
        </g>
        <g>
          <path class="cls-1" d="M1177.39,1492.68h0s-44.32,0-44.32,0c-16.32,0-29.54-13.23-29.54-29.54v-44.32h0c40.79,0,73.86,33.07,73.86,73.86Z"/>
          <path class="cls-1" d="M1256.18,1571.47h0s-44.32,0-44.32,0c-16.32,0-29.54-13.23-29.54-29.54v-44.32h0c40.79,0,73.86,33.07,73.86,73.86Z"/>
        </g>
        <g>
          <path class="cls-1" d="M1335.04,1492.68h0s-44.32,0-44.32,0c-16.32,0-29.54-13.23-29.54-29.54v-44.32h0c40.79,0,73.86,33.07,73.86,73.86Z"/>
          <path class="cls-1" d="M1413.82,1571.47h0s-44.32,0-44.32,0c-16.32,0-29.54-13.23-29.54-29.54v-44.32h0c40.79,0,73.86,33.07,73.86,73.86Z"/>
        </g>
        <g>
          <path class="cls-1" d="M1492.68,1492.68h0s-44.32,0-44.32,0c-16.32,0-29.54-13.23-29.54-29.54v-44.32h0c40.79,0,73.86,33.07,73.86,73.86Z"/>
          <path class="cls-1" d="M1571.47,1571.47h0s-44.32,0-44.32,0c-16.32,0-29.54-13.23-29.54-29.54v-44.32h0c40.79,0,73.86,33.07,73.86,73.86Z"/>
        </g>
        <g>
          <path class="cls-1" d="M1650.33,1492.68h0s-44.32,0-44.32,0c-16.32,0-29.54-13.23-29.54-29.54v-44.32h0c40.79,0,73.86,33.07,73.86,73.86Z"/>
          <path class="cls-1" d="M1729.12,1571.47h0s-44.32,0-44.32,0c-16.32,0-29.54-13.23-29.54-29.54v-44.32h0c40.79,0,73.86,33.07,73.86,73.86Z"/>
        </g>
        <g>
          <path class="cls-1" d="M1807.98,1492.68h0s-44.32,0-44.32,0c-16.32,0-29.54-13.23-29.54-29.54v-44.32h0c40.79,0,73.86,33.07,73.86,73.86Z"/>
          <path class="cls-1" d="M1886.76,1571.47h0s-44.32,0-44.32,0c-16.32,0-29.54-13.23-29.54-29.54v-44.32h0c40.79,0,73.86,33.07,73.86,73.86Z"/>
        </g>
        <g>
          <path class="cls-1" d="M1965.63,1492.68h0s-44.32,0-44.32,0c-16.32,0-29.54-13.23-29.54-29.54v-44.32h0c40.79,0,73.86,33.07,73.86,73.86Z"/>
          <path class="cls-1" d="M2044.41,1571.47h0s-44.32,0-44.32,0c-16.32,0-29.54-13.23-29.54-29.54v-44.32h0c40.79,0,73.86,33.07,73.86,73.86Z"/>
        </g>
        <g>
          <path class="cls-1" d="M2123.27,1492.68h0s-44.32,0-44.32,0c-16.32,0-29.54-13.23-29.54-29.54v-44.32h0c40.79,0,73.86,33.07,73.86,73.86Z"/>
          <path class="cls-1" d="M2202.06,1571.47h0s-44.32,0-44.32,0c-16.32,0-29.54-13.23-29.54-29.54v-44.32h0c40.79,0,73.86,33.07,73.86,73.86Z"/>
        </g>
        <g>
          <path class="cls-1" d="M2280.92,1492.68h0s-44.32,0-44.32,0c-16.32,0-29.54-13.23-29.54-29.54v-44.32h0c40.79,0,73.86,33.07,73.86,73.86Z"/>
          <path class="cls-1" d="M2359.71,1571.47h0s-44.32,0-44.32,0c-16.32,0-29.54-13.23-29.54-29.54v-44.32h0c40.79,0,73.86,33.07,73.86,73.86Z"/>
        </g>
        <g>
          <path class="cls-1" d="M2438.57,1492.68h0s-44.32,0-44.32,0c-16.32,0-29.54-13.23-29.54-29.54v-44.32h0c40.79,0,73.86,33.07,73.86,73.86Z"/>
          <path class="cls-1" d="M2517.35,1571.47h0s-44.32,0-44.32,0c-16.32,0-29.54-13.23-29.54-29.54v-44.32h0c40.79,0,73.86,33.07,73.86,73.86Z"/>
        </g>
        <g>
          <path class="cls-1" d="M2596.21,1492.68h0s-44.32,0-44.32,0c-16.32,0-29.54-13.23-29.54-29.54v-44.32h0c40.79,0,73.86,33.07,73.86,73.86Z"/>
          <path class="cls-1" d="M2675,1571.47h0s-44.32,0-44.32,0c-16.32,0-29.54-13.23-29.54-29.54v-44.32h0c40.79,0,73.86,33.07,73.86,73.86Z"/>
        </g>
        <g>
          <path class="cls-1" d="M2753.86,1492.68h0s-44.32,0-44.32,0c-16.32,0-29.54-13.23-29.54-29.54v-44.32h0c40.79,0,73.86,33.07,73.86,73.86Z"/>
          <path class="cls-1" d="M2832.65,1571.47h0s-44.32,0-44.32,0c-16.32,0-29.54-13.23-29.54-29.54v-44.32h0c40.79,0,73.86,33.07,73.86,73.86Z"/>
        </g>
        <g>
          <path class="cls-1" d="M2911.51,1492.68h0s-44.32,0-44.32,0c-16.32,0-29.54-13.23-29.54-29.54v-44.32h0c40.79,0,73.86,33.07,73.86,73.86Z"/>
          <path class="cls-1" d="M2990.29,1571.47h0s-44.32,0-44.32,0c-16.32,0-29.54-13.23-29.54-29.54v-44.32h0c40.79,0,73.86,33.07,73.86,73.86Z"/>
        </g>
        <g>
          <path class="cls-1" d="M3069.16,1492.68h0s-44.32,0-44.32,0c-16.32,0-29.54-13.23-29.54-29.54v-44.32h0c40.79,0,73.86,33.07,73.86,73.86Z"/>
          <path class="cls-1" d="M3147.94,1571.47h0s-44.32,0-44.32,0c-16.32,0-29.54-13.23-29.54-29.54v-44.32h0c40.79,0,73.86,33.07,73.86,73.86Z"/>
        </g>
        <g>
          <path class="cls-1" d="M3226.8,1492.68h0s-44.32,0-44.32,0c-16.32,0-29.54-13.23-29.54-29.54v-44.32h0c40.79,0,73.86,33.07,73.86,73.86Z"/>
          <path class="cls-1" d="M3305.59,1571.47h0s-44.32,0-44.32,0c-16.32,0-29.54-13.23-29.54-29.54v-44.32h0c40.79,0,73.86,33.07,73.86,73.86Z"/>
        </g>
        <g>
          <path class="cls-1" d="M3384.45,1492.68h0s-44.32,0-44.32,0c-16.32,0-29.54-13.23-29.54-29.54v-44.32h0c40.79,0,73.86,33.07,73.86,73.86Z"/>
          <path class="cls-1" d="M3463.24,1571.47h0s-44.32,0-44.32,0c-16.32,0-29.54-13.23-29.54-29.54v-44.32h0c40.79,0,73.86,33.07,73.86,73.86Z"/>
        </g>
        <g>
          <path class="cls-1" d="M3542.1,1492.68h0s-44.32,0-44.32,0c-16.32,0-29.54-13.23-29.54-29.54v-44.32h0c40.79,0,73.86,33.07,73.86,73.86Z"/>
          <path class="cls-1" d="M3620.88,1571.47h0s-44.32,0-44.32,0c-16.32,0-29.54-13.23-29.54-29.54v-44.32h0c40.79,0,73.86,33.07,73.86,73.86Z"/>
        </g>
        <g>
          <path class="cls-1" d="M3699.74,1492.68h0s-44.32,0-44.32,0c-16.32,0-29.54-13.23-29.54-29.54v-44.32h0c40.79,0,73.86,33.07,73.86,73.86Z"/>
          <path class="cls-1" d="M3778.53,1571.47h0s-44.32,0-44.32,0c-16.32,0-29.54-13.23-29.54-29.54v-44.32h0c40.79,0,73.86,33.07,73.86,73.86Z"/>
        </g>
        <g>
          <path class="cls-1" d="M3857.39,1492.68h0s-44.32,0-44.32,0c-16.32,0-29.54-13.23-29.54-29.54v-44.32h0c40.79,0,73.86,33.07,73.86,73.86Z"/>
          <path class="cls-1" d="M3936.18,1571.47h0s-44.32,0-44.32,0c-16.32,0-29.54-13.23-29.54-29.54v-44.32h0c40.79,0,73.86,33.07,73.86,73.86Z"/>
        </g>
        <g>
          <path class="cls-1" d="M73.86,1650.33h0s-44.32,0-44.32,0C13.23,1650.33,0,1637.1,0,1620.79v-44.32H0c40.79,0,73.86,33.07,73.86,73.86Z"/>
          <path class="cls-1" d="M152.65,1729.12h0s-44.32,0-44.32,0c-16.32,0-29.54-13.23-29.54-29.54v-44.32h0c40.79,0,73.86,33.07,73.86,73.86Z"/>
        </g>
        <g>
          <path class="cls-1" d="M231.51,1650.33h0s-44.32,0-44.32,0c-16.32,0-29.54-13.23-29.54-29.54v-44.32h0c40.79,0,73.86,33.07,73.86,73.86Z"/>
          <path class="cls-1" d="M310.29,1729.12h0s-44.32,0-44.32,0c-16.32,0-29.54-13.23-29.54-29.54v-44.32h0c40.79,0,73.86,33.07,73.86,73.86Z"/>
        </g>
        <g>
          <path class="cls-1" d="M389.16,1650.33h0s-44.32,0-44.32,0c-16.32,0-29.54-13.23-29.54-29.54v-44.32h0c40.79,0,73.86,33.07,73.86,73.86Z"/>
          <path class="cls-1" d="M467.94,1729.12h0s-44.32,0-44.32,0c-16.32,0-29.54-13.23-29.54-29.54v-44.32h0c40.79,0,73.86,33.07,73.86,73.86Z"/>
        </g>
        <g>
          <path class="cls-1" d="M546.8,1650.33h0s-44.32,0-44.32,0c-16.32,0-29.54-13.23-29.54-29.54v-44.32h0c40.79,0,73.86,33.07,73.86,73.86Z"/>
          <path class="cls-1" d="M625.59,1729.12h0s-44.32,0-44.32,0c-16.32,0-29.54-13.23-29.54-29.54v-44.32h0c40.79,0,73.86,33.07,73.86,73.86Z"/>
        </g>
        <g>
          <path class="cls-1" d="M704.45,1650.33h0s-44.32,0-44.32,0c-16.32,0-29.54-13.23-29.54-29.54v-44.32h0c40.79,0,73.86,33.07,73.86,73.86Z"/>
          <path class="cls-1" d="M783.24,1729.12h0s-44.32,0-44.32,0c-16.32,0-29.54-13.23-29.54-29.54v-44.32h0c40.79,0,73.86,33.07,73.86,73.86Z"/>
        </g>
        <g>
          <path class="cls-1" d="M862.1,1650.33h0s-44.32,0-44.32,0c-16.32,0-29.54-13.23-29.54-29.54v-44.32h0c40.79,0,73.86,33.07,73.86,73.86Z"/>
          <path class="cls-1" d="M940.88,1729.12h0s-44.32,0-44.32,0c-16.32,0-29.54-13.23-29.54-29.54v-44.32h0c40.79,0,73.86,33.07,73.86,73.86Z"/>
        </g>
        <g>
          <path class="cls-1" d="M1019.74,1650.33h0s-44.32,0-44.32,0c-16.32,0-29.54-13.23-29.54-29.54v-44.32h0c40.79,0,73.86,33.07,73.86,73.86Z"/>
          <path class="cls-1" d="M1098.53,1729.12h0s-44.32,0-44.32,0c-16.32,0-29.54-13.23-29.54-29.54v-44.32h0c40.79,0,73.86,33.07,73.86,73.86Z"/>
        </g>
        <g>
          <path class="cls-1" d="M1177.39,1650.33h0s-44.32,0-44.32,0c-16.32,0-29.54-13.23-29.54-29.54v-44.32h0c40.79,0,73.86,33.07,73.86,73.86Z"/>
          <path class="cls-1" d="M1256.18,1729.12h0s-44.32,0-44.32,0c-16.32,0-29.54-13.23-29.54-29.54v-44.32h0c40.79,0,73.86,33.07,73.86,73.86Z"/>
        </g>
        <g>
          <path class="cls-1" d="M1335.04,1650.33h0s-44.32,0-44.32,0c-16.32,0-29.54-13.23-29.54-29.54v-44.32h0c40.79,0,73.86,33.07,73.86,73.86Z"/>
          <path class="cls-1" d="M1413.82,1729.12h0s-44.32,0-44.32,0c-16.32,0-29.54-13.23-29.54-29.54v-44.32h0c40.79,0,73.86,33.07,73.86,73.86Z"/>
        </g>
        <g>
          <path class="cls-1" d="M1492.68,1650.33h0s-44.32,0-44.32,0c-16.32,0-29.54-13.23-29.54-29.54v-44.32h0c40.79,0,73.86,33.07,73.86,73.86Z"/>
          <path class="cls-1" d="M1571.47,1729.12h0s-44.32,0-44.32,0c-16.32,0-29.54-13.23-29.54-29.54v-44.32h0c40.79,0,73.86,33.07,73.86,73.86Z"/>
        </g>
        <g>
          <path class="cls-1" d="M1650.33,1650.33h0s-44.32,0-44.32,0c-16.32,0-29.54-13.23-29.54-29.54v-44.32h0c40.79,0,73.86,33.07,73.86,73.86Z"/>
          <path class="cls-1" d="M1729.12,1729.12h0s-44.32,0-44.32,0c-16.32,0-29.54-13.23-29.54-29.54v-44.32h0c40.79,0,73.86,33.07,73.86,73.86Z"/>
        </g>
        <g>
          <path class="cls-1" d="M1807.98,1650.33h0s-44.32,0-44.32,0c-16.32,0-29.54-13.23-29.54-29.54v-44.32h0c40.79,0,73.86,33.07,73.86,73.86Z"/>
          <path class="cls-1" d="M1886.76,1729.12h0s-44.32,0-44.32,0c-16.32,0-29.54-13.23-29.54-29.54v-44.32h0c40.79,0,73.86,33.07,73.86,73.86Z"/>
        </g>
        <g>
          <path class="cls-1" d="M1965.63,1650.33h0s-44.32,0-44.32,0c-16.32,0-29.54-13.23-29.54-29.54v-44.32h0c40.79,0,73.86,33.07,73.86,73.86Z"/>
          <path class="cls-1" d="M2044.41,1729.12h0s-44.32,0-44.32,0c-16.32,0-29.54-13.23-29.54-29.54v-44.32h0c40.79,0,73.86,33.07,73.86,73.86Z"/>
        </g>
        <g>
          <path class="cls-1" d="M2123.27,1650.33h0s-44.32,0-44.32,0c-16.32,0-29.54-13.23-29.54-29.54v-44.32h0c40.79,0,73.86,33.07,73.86,73.86Z"/>
          <path class="cls-1" d="M2202.06,1729.12h0s-44.32,0-44.32,0c-16.32,0-29.54-13.23-29.54-29.54v-44.32h0c40.79,0,73.86,33.07,73.86,73.86Z"/>
        </g>
        <g>
          <path class="cls-1" d="M2280.92,1650.33h0s-44.32,0-44.32,0c-16.32,0-29.54-13.23-29.54-29.54v-44.32h0c40.79,0,73.86,33.07,73.86,73.86Z"/>
          <path class="cls-1" d="M2359.71,1729.12h0s-44.32,0-44.32,0c-16.32,0-29.54-13.23-29.54-29.54v-44.32h0c40.79,0,73.86,33.07,73.86,73.86Z"/>
        </g>
        <g>
          <path class="cls-1" d="M2438.57,1650.33h0s-44.32,0-44.32,0c-16.32,0-29.54-13.23-29.54-29.54v-44.32h0c40.79,0,73.86,33.07,73.86,73.86Z"/>
          <path class="cls-1" d="M2517.35,1729.12h0s-44.32,0-44.32,0c-16.32,0-29.54-13.23-29.54-29.54v-44.32h0c40.79,0,73.86,33.07,73.86,73.86Z"/>
        </g>
        <g>
          <path class="cls-1" d="M2596.21,1650.33h0s-44.32,0-44.32,0c-16.32,0-29.54-13.23-29.54-29.54v-44.32h0c40.79,0,73.86,33.07,73.86,73.86Z"/>
          <path class="cls-1" d="M2675,1729.12h0s-44.32,0-44.32,0c-16.32,0-29.54-13.23-29.54-29.54v-44.32h0c40.79,0,73.86,33.07,73.86,73.86Z"/>
        </g>
        <g>
          <path class="cls-1" d="M2753.86,1650.33h0s-44.32,0-44.32,0c-16.32,0-29.54-13.23-29.54-29.54v-44.32h0c40.79,0,73.86,33.07,73.86,73.86Z"/>
          <path class="cls-1" d="M2832.65,1729.12h0s-44.32,0-44.32,0c-16.32,0-29.54-13.23-29.54-29.54v-44.32h0c40.79,0,73.86,33.07,73.86,73.86Z"/>
        </g>
        <g>
          <path class="cls-1" d="M2911.51,1650.33h0s-44.32,0-44.32,0c-16.32,0-29.54-13.23-29.54-29.54v-44.32h0c40.79,0,73.86,33.07,73.86,73.86Z"/>
          <path class="cls-1" d="M2990.29,1729.12h0s-44.32,0-44.32,0c-16.32,0-29.54-13.23-29.54-29.54v-44.32h0c40.79,0,73.86,33.07,73.86,73.86Z"/>
        </g>
        <g>
          <path class="cls-1" d="M3069.16,1650.33h0s-44.32,0-44.32,0c-16.32,0-29.54-13.23-29.54-29.54v-44.32h0c40.79,0,73.86,33.07,73.86,73.86Z"/>
          <path class="cls-1" d="M3147.94,1729.12h0s-44.32,0-44.32,0c-16.32,0-29.54-13.23-29.54-29.54v-44.32h0c40.79,0,73.86,33.07,73.86,73.86Z"/>
        </g>
        <g>
          <path class="cls-1" d="M3226.8,1650.33h0s-44.32,0-44.32,0c-16.32,0-29.54-13.23-29.54-29.54v-44.32h0c40.79,0,73.86,33.07,73.86,73.86Z"/>
          <path class="cls-1" d="M3305.59,1729.12h0s-44.32,0-44.32,0c-16.32,0-29.54-13.23-29.54-29.54v-44.32h0c40.79,0,73.86,33.07,73.86,73.86Z"/>
        </g>
        <g>
          <path class="cls-1" d="M3384.45,1650.33h0s-44.32,0-44.32,0c-16.32,0-29.54-13.23-29.54-29.54v-44.32h0c40.79,0,73.86,33.07,73.86,73.86Z"/>
          <path class="cls-1" d="M3463.24,1729.12h0s-44.32,0-44.32,0c-16.32,0-29.54-13.23-29.54-29.54v-44.32h0c40.79,0,73.86,33.07,73.86,73.86Z"/>
        </g>
        <g>
          <path class="cls-1" d="M3542.1,1650.33h0s-44.32,0-44.32,0c-16.32,0-29.54-13.23-29.54-29.54v-44.32h0c40.79,0,73.86,33.07,73.86,73.86Z"/>
          <path class="cls-1" d="M3620.88,1729.12h0s-44.32,0-44.32,0c-16.32,0-29.54-13.23-29.54-29.54v-44.32h0c40.79,0,73.86,33.07,73.86,73.86Z"/>
        </g>
        <g>
          <path class="cls-1" d="M3699.74,1650.33h0s-44.32,0-44.32,0c-16.32,0-29.54-13.23-29.54-29.54v-44.32h0c40.79,0,73.86,33.07,73.86,73.86Z"/>
          <path class="cls-1" d="M3778.53,1729.12h0s-44.32,0-44.32,0c-16.32,0-29.54-13.23-29.54-29.54v-44.32h0c40.79,0,73.86,33.07,73.86,73.86Z"/>
        </g>
        <g>
          <path class="cls-1" d="M3857.39,1650.33h0s-44.32,0-44.32,0c-16.32,0-29.54-13.23-29.54-29.54v-44.32h0c40.79,0,73.86,33.07,73.86,73.86Z"/>
          <path class="cls-1" d="M3936.18,1729.12h0s-44.32,0-44.32,0c-16.32,0-29.54-13.23-29.54-29.54v-44.32h0c40.79,0,73.86,33.07,73.86,73.86Z"/>
        </g>
        <g>
          <path class="cls-1" d="M73.86,1807.98h0s-44.32,0-44.32,0C13.23,1807.98,0,1794.75,0,1778.43v-44.32H0c40.79,0,73.86,33.07,73.86,73.86Z"/>
          <path class="cls-1" d="M152.65,1886.76h0s-44.32,0-44.32,0c-16.32,0-29.54-13.23-29.54-29.54v-44.32h0c40.79,0,73.86,33.07,73.86,73.86Z"/>
        </g>
        <g>
          <path class="cls-1" d="M231.51,1807.98h0s-44.32,0-44.32,0c-16.32,0-29.54-13.23-29.54-29.54v-44.32h0c40.79,0,73.86,33.07,73.86,73.86Z"/>
          <path class="cls-1" d="M310.29,1886.76h0s-44.32,0-44.32,0c-16.32,0-29.54-13.23-29.54-29.54v-44.32h0c40.79,0,73.86,33.07,73.86,73.86Z"/>
        </g>
        <g>
          <path class="cls-1" d="M389.16,1807.98h0s-44.32,0-44.32,0c-16.32,0-29.54-13.23-29.54-29.54v-44.32h0c40.79,0,73.86,33.07,73.86,73.86Z"/>
          <path class="cls-1" d="M467.94,1886.76h0s-44.32,0-44.32,0c-16.32,0-29.54-13.23-29.54-29.54v-44.32h0c40.79,0,73.86,33.07,73.86,73.86Z"/>
        </g>
        <g>
          <path class="cls-1" d="M546.8,1807.98h0s-44.32,0-44.32,0c-16.32,0-29.54-13.23-29.54-29.54v-44.32h0c40.79,0,73.86,33.07,73.86,73.86Z"/>
          <path class="cls-1" d="M625.59,1886.76h0s-44.32,0-44.32,0c-16.32,0-29.54-13.23-29.54-29.54v-44.32h0c40.79,0,73.86,33.07,73.86,73.86Z"/>
        </g>
        <g>
          <path class="cls-1" d="M704.45,1807.98h0s-44.32,0-44.32,0c-16.32,0-29.54-13.23-29.54-29.54v-44.32h0c40.79,0,73.86,33.07,73.86,73.86Z"/>
          <path class="cls-1" d="M783.24,1886.76h0s-44.32,0-44.32,0c-16.32,0-29.54-13.23-29.54-29.54v-44.32h0c40.79,0,73.86,33.07,73.86,73.86Z"/>
        </g>
        <g>
          <path class="cls-1" d="M862.1,1807.98h0s-44.32,0-44.32,0c-16.32,0-29.54-13.23-29.54-29.54v-44.32h0c40.79,0,73.86,33.07,73.86,73.86Z"/>
          <path class="cls-1" d="M940.88,1886.76h0s-44.32,0-44.32,0c-16.32,0-29.54-13.23-29.54-29.54v-44.32h0c40.79,0,73.86,33.07,73.86,73.86Z"/>
        </g>
        <g>
          <path class="cls-1" d="M1019.74,1807.98h0s-44.32,0-44.32,0c-16.32,0-29.54-13.23-29.54-29.54v-44.32h0c40.79,0,73.86,33.07,73.86,73.86Z"/>
          <path class="cls-1" d="M1098.53,1886.76h0s-44.32,0-44.32,0c-16.32,0-29.54-13.23-29.54-29.54v-44.32h0c40.79,0,73.86,33.07,73.86,73.86Z"/>
        </g>
        <g>
          <path class="cls-1" d="M1177.39,1807.98h0s-44.32,0-44.32,0c-16.32,0-29.54-13.23-29.54-29.54v-44.32h0c40.79,0,73.86,33.07,73.86,73.86Z"/>
          <path class="cls-1" d="M1256.18,1886.76h0s-44.32,0-44.32,0c-16.32,0-29.54-13.23-29.54-29.54v-44.32h0c40.79,0,73.86,33.07,73.86,73.86Z"/>
        </g>
        <g>
          <path class="cls-1" d="M1335.04,1807.98h0s-44.32,0-44.32,0c-16.32,0-29.54-13.23-29.54-29.54v-44.32h0c40.79,0,73.86,33.07,73.86,73.86Z"/>
          <path class="cls-1" d="M1413.82,1886.76h0s-44.32,0-44.32,0c-16.32,0-29.54-13.23-29.54-29.54v-44.32h0c40.79,0,73.86,33.07,73.86,73.86Z"/>
        </g>
        <g>
          <path class="cls-1" d="M1492.68,1807.98h0s-44.32,0-44.32,0c-16.32,0-29.54-13.23-29.54-29.54v-44.32h0c40.79,0,73.86,33.07,73.86,73.86Z"/>
          <path class="cls-1" d="M1571.47,1886.76h0s-44.32,0-44.32,0c-16.32,0-29.54-13.23-29.54-29.54v-44.32h0c40.79,0,73.86,33.07,73.86,73.86Z"/>
        </g>
        <g>
          <path class="cls-1" d="M1650.33,1807.98h0s-44.32,0-44.32,0c-16.32,0-29.54-13.23-29.54-29.54v-44.32h0c40.79,0,73.86,33.07,73.86,73.86Z"/>
          <path class="cls-1" d="M1729.12,1886.76h0s-44.32,0-44.32,0c-16.32,0-29.54-13.23-29.54-29.54v-44.32h0c40.79,0,73.86,33.07,73.86,73.86Z"/>
        </g>
        <g>
          <path class="cls-1" d="M1807.98,1807.98h0s-44.32,0-44.32,0c-16.32,0-29.54-13.23-29.54-29.54v-44.32h0c40.79,0,73.86,33.07,73.86,73.86Z"/>
          <path class="cls-1" d="M1886.76,1886.76h0s-44.32,0-44.32,0c-16.32,0-29.54-13.23-29.54-29.54v-44.32h0c40.79,0,73.86,33.07,73.86,73.86Z"/>
        </g>
        <g>
          <path class="cls-1" d="M1965.63,1807.98h0s-44.32,0-44.32,0c-16.32,0-29.54-13.23-29.54-29.54v-44.32h0c40.79,0,73.86,33.07,73.86,73.86Z"/>
          <path class="cls-1" d="M2044.41,1886.76h0s-44.32,0-44.32,0c-16.32,0-29.54-13.23-29.54-29.54v-44.32h0c40.79,0,73.86,33.07,73.86,73.86Z"/>
        </g>
        <g>
          <path class="cls-1" d="M2123.27,1807.98h0s-44.32,0-44.32,0c-16.32,0-29.54-13.23-29.54-29.54v-44.32h0c40.79,0,73.86,33.07,73.86,73.86Z"/>
          <path class="cls-1" d="M2202.06,1886.76h0s-44.32,0-44.32,0c-16.32,0-29.54-13.23-29.54-29.54v-44.32h0c40.79,0,73.86,33.07,73.86,73.86Z"/>
        </g>
        <g>
          <path class="cls-1" d="M2280.92,1807.98h0s-44.32,0-44.32,0c-16.32,0-29.54-13.23-29.54-29.54v-44.32h0c40.79,0,73.86,33.07,73.86,73.86Z"/>
          <path class="cls-1" d="M2359.71,1886.76h0s-44.32,0-44.32,0c-16.32,0-29.54-13.23-29.54-29.54v-44.32h0c40.79,0,73.86,33.07,73.86,73.86Z"/>
        </g>
        <g>
          <path class="cls-1" d="M2438.57,1807.98h0s-44.32,0-44.32,0c-16.32,0-29.54-13.23-29.54-29.54v-44.32h0c40.79,0,73.86,33.07,73.86,73.86Z"/>
          <path class="cls-1" d="M2517.35,1886.76h0s-44.32,0-44.32,0c-16.32,0-29.54-13.23-29.54-29.54v-44.32h0c40.79,0,73.86,33.07,73.86,73.86Z"/>
        </g>
        <g>
          <path class="cls-1" d="M2596.21,1807.98h0s-44.32,0-44.32,0c-16.32,0-29.54-13.23-29.54-29.54v-44.32h0c40.79,0,73.86,33.07,73.86,73.86Z"/>
          <path class="cls-1" d="M2675,1886.76h0s-44.32,0-44.32,0c-16.32,0-29.54-13.23-29.54-29.54v-44.32h0c40.79,0,73.86,33.07,73.86,73.86Z"/>
        </g>
        <g>
          <path class="cls-1" d="M2753.86,1807.98h0s-44.32,0-44.32,0c-16.32,0-29.54-13.23-29.54-29.54v-44.32h0c40.79,0,73.86,33.07,73.86,73.86Z"/>
          <path class="cls-1" d="M2832.65,1886.76h0s-44.32,0-44.32,0c-16.32,0-29.54-13.23-29.54-29.54v-44.32h0c40.79,0,73.86,33.07,73.86,73.86Z"/>
        </g>
        <g>
          <path class="cls-1" d="M2911.51,1807.98h0s-44.32,0-44.32,0c-16.32,0-29.54-13.23-29.54-29.54v-44.32h0c40.79,0,73.86,33.07,73.86,73.86Z"/>
          <path class="cls-1" d="M2990.29,1886.76h0s-44.32,0-44.32,0c-16.32,0-29.54-13.23-29.54-29.54v-44.32h0c40.79,0,73.86,33.07,73.86,73.86Z"/>
        </g>
        <g>
          <path class="cls-1" d="M3069.16,1807.98h0s-44.32,0-44.32,0c-16.32,0-29.54-13.23-29.54-29.54v-44.32h0c40.79,0,73.86,33.07,73.86,73.86Z"/>
          <path class="cls-1" d="M3147.94,1886.76h0s-44.32,0-44.32,0c-16.32,0-29.54-13.23-29.54-29.54v-44.32h0c40.79,0,73.86,33.07,73.86,73.86Z"/>
        </g>
        <g>
          <path class="cls-1" d="M3226.8,1807.98h0s-44.32,0-44.32,0c-16.32,0-29.54-13.23-29.54-29.54v-44.32h0c40.79,0,73.86,33.07,73.86,73.86Z"/>
          <path class="cls-1" d="M3305.59,1886.76h0s-44.32,0-44.32,0c-16.32,0-29.54-13.23-29.54-29.54v-44.32h0c40.79,0,73.86,33.07,73.86,73.86Z"/>
        </g>
        <g>
          <path class="cls-1" d="M3384.45,1807.98h0s-44.32,0-44.32,0c-16.32,0-29.54-13.23-29.54-29.54v-44.32h0c40.79,0,73.86,33.07,73.86,73.86Z"/>
          <path class="cls-1" d="M3463.24,1886.76h0s-44.32,0-44.32,0c-16.32,0-29.54-13.23-29.54-29.54v-44.32h0c40.79,0,73.86,33.07,73.86,73.86Z"/>
        </g>
        <g>
          <path class="cls-1" d="M3542.1,1807.98h0s-44.32,0-44.32,0c-16.32,0-29.54-13.23-29.54-29.54v-44.32h0c40.79,0,73.86,33.07,73.86,73.86Z"/>
          <path class="cls-1" d="M3620.88,1886.76h0s-44.32,0-44.32,0c-16.32,0-29.54-13.23-29.54-29.54v-44.32h0c40.79,0,73.86,33.07,73.86,73.86Z"/>
        </g>
        <g>
          <path class="cls-1" d="M3699.74,1807.98h0s-44.32,0-44.32,0c-16.32,0-29.54-13.23-29.54-29.54v-44.32h0c40.79,0,73.86,33.07,73.86,73.86Z"/>
          <path class="cls-1" d="M3778.53,1886.76h0s-44.32,0-44.32,0c-16.32,0-29.54-13.23-29.54-29.54v-44.32h0c40.79,0,73.86,33.07,73.86,73.86Z"/>
        </g>
        <g>
          <path class="cls-1" d="M3857.39,1807.98h0s-44.32,0-44.32,0c-16.32,0-29.54-13.23-29.54-29.54v-44.32h0c40.79,0,73.86,33.07,73.86,73.86Z"/>
          <path class="cls-1" d="M3936.18,1886.76h0s-44.32,0-44.32,0c-16.32,0-29.54-13.23-29.54-29.54v-44.32h0c40.79,0,73.86,33.07,73.86,73.86Z"/>
        </g>
        <path class="cls-1" d="M73.86,1965.63h0s-44.32,0-44.32,0C13.23,1965.63,0,1952.4,0,1936.08v-44.32H0c40.79,0,73.86,33.07,73.86,73.86Z"/>
        <path class="cls-1" d="M231.51,1965.63h0s-44.32,0-44.32,0c-16.32,0-29.54-13.23-29.54-29.54v-44.32h0c40.79,0,73.86,33.07,73.86,73.86Z"/>
        <path class="cls-1" d="M389.16,1965.63h0s-44.32,0-44.32,0c-16.32,0-29.54-13.23-29.54-29.54v-44.32h0c40.79,0,73.86,33.07,73.86,73.86Z"/>
        <path class="cls-1" d="M546.8,1965.63h0s-44.32,0-44.32,0c-16.32,0-29.54-13.23-29.54-29.54v-44.32h0c40.79,0,73.86,33.07,73.86,73.86Z"/>
        <path class="cls-1" d="M704.45,1965.63h0s-44.32,0-44.32,0c-16.32,0-29.54-13.23-29.54-29.54v-44.32h0c40.79,0,73.86,33.07,73.86,73.86Z"/>
        <path class="cls-1" d="M862.1,1965.63h0s-44.32,0-44.32,0c-16.32,0-29.54-13.23-29.54-29.54v-44.32h0c40.79,0,73.86,33.07,73.86,73.86Z"/>
        <path class="cls-1" d="M1019.74,1965.63h0s-44.32,0-44.32,0c-16.32,0-29.54-13.23-29.54-29.54v-44.32h0c40.79,0,73.86,33.07,73.86,73.86Z"/>
        <path class="cls-1" d="M1177.39,1965.63h0s-44.32,0-44.32,0c-16.32,0-29.54-13.23-29.54-29.54v-44.32h0c40.79,0,73.86,33.07,73.86,73.86Z"/>
        <path class="cls-1" d="M1335.04,1965.63h0s-44.32,0-44.32,0c-16.32,0-29.54-13.23-29.54-29.54v-44.32h0c40.79,0,73.86,33.07,73.86,73.86Z"/>
        <path class="cls-1" d="M1492.68,1965.63h0s-44.32,0-44.32,0c-16.32,0-29.54-13.23-29.54-29.54v-44.32h0c40.79,0,73.86,33.07,73.86,73.86Z"/>
        <path class="cls-1" d="M1650.33,1965.63h0s-44.32,0-44.32,0c-16.32,0-29.54-13.23-29.54-29.54v-44.32h0c40.79,0,73.86,33.07,73.86,73.86Z"/>
        <path class="cls-1" d="M1807.98,1965.63h0s-44.32,0-44.32,0c-16.32,0-29.54-13.23-29.54-29.54v-44.32h0c40.79,0,73.86,33.07,73.86,73.86Z"/>
        <path class="cls-1" d="M1965.63,1965.63h0s-44.32,0-44.32,0c-16.32,0-29.54-13.23-29.54-29.54v-44.32h0c40.79,0,73.86,33.07,73.86,73.86Z"/>
        <path class="cls-1" d="M2123.27,1965.63h0s-44.32,0-44.32,0c-16.32,0-29.54-13.23-29.54-29.54v-44.32h0c40.79,0,73.86,33.07,73.86,73.86Z"/>
        <path class="cls-1" d="M2280.92,1965.63h0s-44.32,0-44.32,0c-16.32,0-29.54-13.23-29.54-29.54v-44.32h0c40.79,0,73.86,33.07,73.86,73.86Z"/>
        <path class="cls-1" d="M2438.57,1965.63h0s-44.32,0-44.32,0c-16.32,0-29.54-13.23-29.54-29.54v-44.32h0c40.79,0,73.86,33.07,73.86,73.86Z"/>
        <path class="cls-1" d="M2596.21,1965.63h0s-44.32,0-44.32,0c-16.32,0-29.54-13.23-29.54-29.54v-44.32h0c40.79,0,73.86,33.07,73.86,73.86Z"/>
        <path class="cls-1" d="M2753.86,1965.63h0s-44.32,0-44.32,0c-16.32,0-29.54-13.23-29.54-29.54v-44.32h0c40.79,0,73.86,33.07,73.86,73.86Z"/>
        <path class="cls-1" d="M2911.51,1965.63h0s-44.32,0-44.32,0c-16.32,0-29.54-13.23-29.54-29.54v-44.32h0c40.79,0,73.86,33.07,73.86,73.86Z"/>
        <path class="cls-1" d="M3069.16,1965.63h0s-44.32,0-44.32,0c-16.32,0-29.54-13.23-29.54-29.54v-44.32h0c40.79,0,73.86,33.07,73.86,73.86Z"/>
        <path class="cls-1" d="M3226.8,1965.63h0s-44.32,0-44.32,0c-16.32,0-29.54-13.23-29.54-29.54v-44.32h0c40.79,0,73.86,33.07,73.86,73.86Z"/>
        <path class="cls-1" d="M3384.45,1965.63h0s-44.32,0-44.32,0c-16.32,0-29.54-13.23-29.54-29.54v-44.32h0c40.79,0,73.86,33.07,73.86,73.86Z"/>
        <path class="cls-1" d="M3542.1,1965.63h0s-44.32,0-44.32,0c-16.32,0-29.54-13.23-29.54-29.54v-44.32h0c40.79,0,73.86,33.07,73.86,73.86Z"/>
        <path class="cls-1" d="M3699.74,1965.63h0s-44.32,0-44.32,0c-16.32,0-29.54-13.23-29.54-29.54v-44.32h0c40.79,0,73.86,33.07,73.86,73.86Z"/>
        <path class="cls-1" d="M3857.39,1965.63h0s-44.32,0-44.32,0c-16.32,0-29.54-13.23-29.54-29.54v-44.32h0c40.79,0,73.86,33.07,73.86,73.86Z"/>
      </g>
    </g>
  </g>
</svg>